<svg viewBox="0 0 372 76" fill="none" xmlns="http://www.w3.org/2000/svg">
<path d="M28.8744 5.76379L12.0477 11.9398C8.16977 13.3524 5 17.8201 5 21.8279V46.2363C5 50.1127 7.63023 55.2046 10.8337 57.537L25.3337 68.0822C30.0884 71.5644 37.9116 71.5644 42.6663 68.0822L57.1663 57.537C60.3698 55.2046 63 50.1127 63 46.2363V21.8279C63 17.7873 59.8302 13.3195 55.9523 11.9069L39.1256 5.76379C36.2593 4.7454 31.6733 4.7454 28.8744 5.76379Z" stroke="#3453C0" stroke-width="9" stroke-linecap="round" stroke-linejoin="round"/>
<path d="M25.123 37.5591L29.9599 42.8774L42.8781 28.6733" stroke="#F5F5DC" stroke-width="9" stroke-linecap="round" stroke-linejoin="round"/>
<path d="M90.0341 52V17.0909H113.557V23.1761H97.4148V31.4943H112.347V37.5795H97.4148V45.9148H113.625V52H90.0341ZM126.754 52.4943C125.084 52.4943 123.595 52.2045 122.288 51.625C120.982 51.0341 119.947 50.1648 119.186 49.017C118.436 47.858 118.061 46.4148 118.061 44.6875C118.061 43.233 118.328 42.0114 118.862 41.0227C119.396 40.0341 120.124 39.2386 121.044 38.6364C121.964 38.0341 123.01 37.5795 124.18 37.2727C125.362 36.9659 126.601 36.75 127.896 36.625C129.419 36.4659 130.646 36.3182 131.578 36.1818C132.51 36.0341 133.186 35.8182 133.607 35.5341C134.027 35.25 134.237 34.8295 134.237 34.2727V34.1705C134.237 33.0909 133.896 32.2557 133.214 31.6648C132.544 31.0739 131.589 30.7784 130.351 30.7784C129.044 30.7784 128.004 31.0682 127.232 31.6477C126.459 32.2159 125.947 32.9318 125.697 33.7955L118.982 33.25C119.322 31.6591 119.993 30.2841 120.993 29.125C121.993 27.9545 123.283 27.0568 124.862 26.4318C126.453 25.7955 128.294 25.4773 130.385 25.4773C131.839 25.4773 133.232 25.6477 134.561 25.9886C135.902 26.3295 137.089 26.858 138.124 27.5739C139.169 28.2898 139.993 29.2102 140.595 30.3352C141.197 31.4489 141.499 32.7841 141.499 34.3409V52H134.612V48.3693H134.408C133.987 49.1875 133.425 49.9091 132.72 50.5341C132.016 51.1477 131.169 51.6307 130.18 51.983C129.192 52.3239 128.05 52.4943 126.754 52.4943ZM128.834 47.483C129.902 47.483 130.845 47.2727 131.663 46.8523C132.482 46.4205 133.124 45.8409 133.589 45.1136C134.055 44.3864 134.288 43.5625 134.288 42.642V39.8636C134.061 40.0114 133.749 40.1477 133.351 40.2727C132.964 40.3864 132.527 40.4943 132.038 40.5966C131.55 40.6875 131.061 40.7727 130.572 40.8523C130.084 40.9205 129.641 40.983 129.243 41.0398C128.391 41.1648 127.646 41.3636 127.01 41.6364C126.374 41.9091 125.879 42.2784 125.527 42.7443C125.175 43.1989 124.999 43.767 124.999 44.4489C124.999 45.4375 125.357 46.1932 126.072 46.7159C126.8 47.2273 127.72 47.483 128.834 47.483ZM168.916 33.2841L162.268 33.6932C162.155 33.125 161.911 32.6136 161.536 32.1591C161.161 31.6932 160.666 31.3239 160.053 31.0511C159.45 30.767 158.729 30.625 157.888 30.625C156.763 30.625 155.814 30.8636 155.041 31.3409C154.268 31.8068 153.882 32.4318 153.882 33.2159C153.882 33.8409 154.132 34.3693 154.632 34.8011C155.132 35.233 155.99 35.5795 157.206 35.8409L161.945 36.7955C164.49 37.3182 166.388 38.1591 167.638 39.3182C168.888 40.4773 169.513 42 169.513 43.8864C169.513 45.6023 169.007 47.108 167.996 48.4034C166.996 49.6989 165.621 50.7102 163.871 51.4375C162.132 52.1534 160.126 52.5114 157.854 52.5114C154.388 52.5114 151.626 51.7898 149.57 50.3466C147.524 48.892 146.325 46.9148 145.973 44.4148L153.115 44.0398C153.331 45.0966 153.854 45.9034 154.683 46.4602C155.513 47.0057 156.575 47.2784 157.871 47.2784C159.143 47.2784 160.166 47.0341 160.939 46.5455C161.723 46.0455 162.121 45.4034 162.132 44.6193C162.121 43.9602 161.842 43.4205 161.297 43C160.751 42.5682 159.911 42.2386 158.774 42.0114L154.24 41.108C151.683 40.5966 149.78 39.7102 148.53 38.4489C147.291 37.1875 146.672 35.5795 146.672 33.625C146.672 31.9432 147.126 30.4943 148.036 29.2784C148.956 28.0625 150.246 27.125 151.905 26.4659C153.575 25.8068 155.53 25.4773 157.768 25.4773C161.075 25.4773 163.678 26.1761 165.575 27.5739C167.484 28.9716 168.598 30.875 168.916 33.2841ZM178.568 61.8182C177.648 61.8182 176.784 61.7443 175.977 61.5966C175.182 61.4602 174.523 61.2841 174 61.0682L175.636 55.6477C176.489 55.9091 177.256 56.0511 177.938 56.0739C178.631 56.0966 179.227 55.9375 179.727 55.5966C180.239 55.2557 180.653 54.6761 180.972 53.858L181.398 52.75L172.006 25.8182H179.642L185.062 45.0455H185.335L190.807 25.8182H198.494L188.318 54.8295C187.83 56.2386 187.165 57.4659 186.324 58.5114C185.494 59.5682 184.443 60.3807 183.17 60.9489C181.898 61.5284 180.364 61.8182 178.568 61.8182Z" fill="#F5F5DC"/>
<path d="M208.364 52H200.455L212.506 17.0909H222.017L234.051 52H226.142L217.398 25.0682H217.125L208.364 52ZM207.869 38.2784H226.551V44.0398H207.869V38.2784ZM248.727 52.5114C246.045 52.5114 243.739 51.9432 241.807 50.8068C239.886 49.6591 238.409 48.0682 237.375 46.0341C236.352 44 235.841 41.6591 235.841 39.0114C235.841 36.3295 236.358 33.9773 237.392 31.9545C238.438 29.9205 239.92 28.3352 241.841 27.1989C243.761 26.0511 246.045 25.4773 248.693 25.4773C250.977 25.4773 252.977 25.892 254.693 26.7216C256.409 27.5511 257.767 28.7159 258.767 30.2159C259.767 31.7159 260.318 33.4773 260.42 35.5H253.568C253.375 34.1932 252.864 33.142 252.034 32.3466C251.216 31.5398 250.142 31.1364 248.812 31.1364C247.688 31.1364 246.705 31.4432 245.864 32.0568C245.034 32.6591 244.386 33.5398 243.92 34.6989C243.455 35.858 243.222 37.2614 243.222 38.9091C243.222 40.5795 243.449 42 243.903 43.1705C244.369 44.3409 245.023 45.233 245.864 45.8466C246.705 46.4602 247.688 46.767 248.812 46.767C249.642 46.767 250.386 46.5966 251.045 46.2557C251.716 45.9148 252.267 45.4205 252.699 44.7727C253.142 44.1136 253.432 43.3239 253.568 42.4034H260.42C260.307 44.4034 259.761 46.1648 258.784 47.6875C257.818 49.1989 256.483 50.3807 254.778 51.233C253.074 52.0852 251.057 52.5114 248.727 52.5114ZM276.899 52.5114C274.217 52.5114 271.911 51.9432 269.979 50.8068C268.058 49.6591 266.581 48.0682 265.547 46.0341C264.524 44 264.013 41.6591 264.013 39.0114C264.013 36.3295 264.53 33.9773 265.564 31.9545C266.609 29.9205 268.092 28.3352 270.013 27.1989C271.933 26.0511 274.217 25.4773 276.865 25.4773C279.149 25.4773 281.149 25.892 282.865 26.7216C284.581 27.5511 285.939 28.7159 286.939 30.2159C287.939 31.7159 288.49 33.4773 288.592 35.5H281.74C281.547 34.1932 281.036 33.142 280.206 32.3466C279.388 31.5398 278.314 31.1364 276.984 31.1364C275.859 31.1364 274.876 31.4432 274.036 32.0568C273.206 32.6591 272.558 33.5398 272.092 34.6989C271.626 35.858 271.393 37.2614 271.393 38.9091C271.393 40.5795 271.621 42 272.075 43.1705C272.541 44.3409 273.195 45.233 274.036 45.8466C274.876 46.4602 275.859 46.767 276.984 46.767C277.814 46.767 278.558 46.5966 279.217 46.2557C279.888 45.9148 280.439 45.4205 280.871 44.7727C281.314 44.1136 281.604 43.3239 281.74 42.4034H288.592C288.479 44.4034 287.933 46.1648 286.956 47.6875C285.99 49.1989 284.655 50.3807 282.95 51.233C281.246 52.0852 279.229 52.5114 276.899 52.5114ZM305.173 52.5114C302.48 52.5114 300.162 51.9659 298.219 50.875C296.287 49.7727 294.798 48.2159 293.753 46.2045C292.707 44.1818 292.185 41.7898 292.185 39.0284C292.185 36.3352 292.707 33.9716 293.753 31.9375C294.798 29.9034 296.27 28.3182 298.168 27.1818C300.077 26.0455 302.315 25.4773 304.884 25.4773C306.611 25.4773 308.219 25.7557 309.707 26.3125C311.207 26.858 312.514 27.6818 313.628 28.7841C314.753 29.8864 315.628 31.2727 316.253 32.9432C316.878 34.6023 317.19 36.5455 317.19 38.7727V40.767H295.082V36.267H310.355C310.355 35.2216 310.128 34.2955 309.673 33.4886C309.219 32.6818 308.588 32.0511 307.781 31.5966C306.986 31.1307 306.06 30.8977 305.003 30.8977C303.901 30.8977 302.923 31.1534 302.071 31.6648C301.23 32.1648 300.571 32.8409 300.094 33.6932C299.616 34.5341 299.372 35.4716 299.361 36.5057V40.7841C299.361 42.0795 299.599 43.1989 300.077 44.142C300.565 45.0852 301.253 45.8125 302.139 46.3239C303.026 46.8352 304.077 47.0909 305.293 47.0909C306.099 47.0909 306.838 46.9773 307.509 46.75C308.179 46.5227 308.753 46.1818 309.23 45.7273C309.707 45.2727 310.071 44.7159 310.321 44.0568L317.037 44.5C316.696 46.1136 315.997 47.5227 314.94 48.7273C313.895 49.9205 312.543 50.8523 310.884 51.5227C309.236 52.1818 307.332 52.5114 305.173 52.5114ZM343.713 33.2841L337.065 33.6932C336.952 33.125 336.707 32.6136 336.332 32.1591C335.957 31.6932 335.463 31.3239 334.849 31.0511C334.247 30.767 333.526 30.625 332.685 30.625C331.56 30.625 330.611 30.8636 329.838 31.3409C329.065 31.8068 328.679 32.4318 328.679 33.2159C328.679 33.8409 328.929 34.3693 329.429 34.8011C329.929 35.233 330.787 35.5795 332.003 35.8409L336.741 36.7955C339.287 37.3182 341.185 38.1591 342.435 39.3182C343.685 40.4773 344.31 42 344.31 43.8864C344.31 45.6023 343.804 47.108 342.793 48.4034C341.793 49.6989 340.418 50.7102 338.668 51.4375C336.929 52.1534 334.923 52.5114 332.651 52.5114C329.185 52.5114 326.423 51.7898 324.366 50.3466C322.321 48.892 321.122 46.9148 320.77 44.4148L327.912 44.0398C328.128 45.0966 328.651 45.9034 329.48 46.4602C330.31 47.0057 331.372 47.2784 332.668 47.2784C333.94 47.2784 334.963 47.0341 335.736 46.5455C336.52 46.0455 336.918 45.4034 336.929 44.6193C336.918 43.9602 336.639 43.4205 336.094 43C335.548 42.5682 334.707 42.2386 333.571 42.0114L329.037 41.108C326.48 40.5966 324.577 39.7102 323.327 38.4489C322.088 37.1875 321.469 35.5795 321.469 33.625C321.469 31.9432 321.923 30.4943 322.832 29.2784C323.753 28.0625 325.043 27.125 326.702 26.4659C328.372 25.8068 330.327 25.4773 332.565 25.4773C335.872 25.4773 338.474 26.1761 340.372 27.5739C342.281 28.9716 343.395 30.875 343.713 33.2841ZM370.666 33.2841L364.018 33.6932C363.905 33.125 363.661 32.6136 363.286 32.1591C362.911 31.6932 362.416 31.3239 361.803 31.0511C361.2 30.767 360.479 30.625 359.638 30.625C358.513 30.625 357.564 30.8636 356.791 31.3409C356.018 31.8068 355.632 32.4318 355.632 33.2159C355.632 33.8409 355.882 34.3693 356.382 34.8011C356.882 35.233 357.74 35.5795 358.956 35.8409L363.695 36.7955C366.24 37.3182 368.138 38.1591 369.388 39.3182C370.638 40.4773 371.263 42 371.263 43.8864C371.263 45.6023 370.757 47.108 369.746 48.4034C368.746 49.6989 367.371 50.7102 365.621 51.4375C363.882 52.1534 361.876 52.5114 359.604 52.5114C356.138 52.5114 353.376 51.7898 351.32 50.3466C349.274 48.892 348.075 46.9148 347.723 44.4148L354.865 44.0398C355.081 45.0966 355.604 45.9034 356.433 46.4602C357.263 47.0057 358.325 47.2784 359.621 47.2784C360.893 47.2784 361.916 47.0341 362.689 46.5455C363.473 46.0455 363.871 45.4034 363.882 44.6193C363.871 43.9602 363.592 43.4205 363.047 43C362.501 42.5682 361.661 42.2386 360.524 42.0114L355.99 41.108C353.433 40.5966 351.53 39.7102 350.28 38.4489C349.041 37.1875 348.422 35.5795 348.422 33.625C348.422 31.9432 348.876 30.4943 349.786 29.2784C350.706 28.0625 351.996 27.125 353.655 26.4659C355.325 25.8068 357.28 25.4773 359.518 25.4773C362.825 25.4773 365.428 26.1761 367.325 27.5739C369.234 28.9716 370.348 30.875 370.666 33.2841Z" fill="#3453C0"/>
</svg>
