<svg viewBox="0 0 1965 1058" fill="none" xmlns="http://www.w3.org/2000/svg">
<g filter="url(#filter0_d_0_1)">
<path d="M43 435.5C43 216.519 220.519 39 439.5 39H1922V614.5C1922 833.481 1744.48 1011 1525.5 1011H43V435.5Z" fill="#151515"/>
</g>
<path d="M661.295 218.841C661.114 217.008 660.333 215.583 658.955 214.568C657.576 213.553 655.705 213.045 653.341 213.045C651.735 213.045 650.379 213.273 649.273 213.727C648.167 214.167 647.318 214.78 646.727 215.568C646.152 216.356 645.864 217.25 645.864 218.25C645.833 219.083 646.008 219.811 646.386 220.432C646.78 221.053 647.318 221.591 648 222.045C648.682 222.485 649.47 222.871 650.364 223.205C651.258 223.523 652.212 223.795 653.227 224.023L657.409 225.023C659.439 225.477 661.303 226.083 663 226.841C664.697 227.598 666.167 228.53 667.409 229.636C668.652 230.742 669.614 232.045 670.295 233.545C670.992 235.045 671.348 236.765 671.364 238.705C671.348 241.553 670.621 244.023 669.182 246.114C667.758 248.189 665.697 249.803 663 250.955C660.318 252.091 657.083 252.659 653.295 252.659C649.538 252.659 646.265 252.083 643.477 250.932C640.705 249.78 638.538 248.076 636.977 245.818C635.432 243.545 634.621 240.735 634.545 237.386H644.068C644.174 238.947 644.621 240.25 645.409 241.295C646.212 242.326 647.28 243.106 648.614 243.636C649.962 244.152 651.485 244.409 653.182 244.409C654.848 244.409 656.295 244.167 657.523 243.682C658.765 243.197 659.727 242.523 660.409 241.659C661.091 240.795 661.432 239.803 661.432 238.682C661.432 237.636 661.121 236.758 660.5 236.045C659.894 235.333 659 234.727 657.818 234.227C656.652 233.727 655.22 233.273 653.523 232.864L648.455 231.591C644.53 230.636 641.432 229.144 639.159 227.114C636.886 225.083 635.758 222.348 635.773 218.909C635.758 216.091 636.508 213.629 638.023 211.523C639.553 209.417 641.652 207.773 644.318 206.591C646.985 205.409 650.015 204.818 653.409 204.818C656.864 204.818 659.879 205.409 662.455 206.591C665.045 207.773 667.061 209.417 668.5 211.523C669.939 213.629 670.682 216.068 670.727 218.841H661.295ZM700.188 237.136V217.091H709.869V252H700.574V245.659H700.21C699.422 247.705 698.112 249.348 696.278 250.591C694.46 251.833 692.241 252.455 689.619 252.455C687.286 252.455 685.233 251.924 683.46 250.864C681.688 249.803 680.301 248.295 679.301 246.341C678.316 244.386 677.816 242.045 677.801 239.318V217.091H687.483V237.591C687.498 239.652 688.051 241.28 689.142 242.477C690.233 243.674 691.695 244.273 693.528 244.273C694.695 244.273 695.786 244.008 696.801 243.477C697.816 242.932 698.634 242.129 699.256 241.068C699.892 240.008 700.203 238.697 700.188 237.136ZM717.795 252V205.455H727.477V222.955H727.773C728.197 222.015 728.811 221.061 729.614 220.091C730.432 219.106 731.492 218.288 732.795 217.636C734.114 216.97 735.75 216.636 737.705 216.636C740.25 216.636 742.598 217.303 744.75 218.636C746.902 219.955 748.621 221.947 749.909 224.614C751.197 227.265 751.841 230.591 751.841 234.591C751.841 238.485 751.212 241.773 749.955 244.455C748.712 247.121 747.015 249.144 744.864 250.523C742.727 251.886 740.333 252.568 737.682 252.568C735.803 252.568 734.205 252.258 732.886 251.636C731.583 251.015 730.515 250.235 729.682 249.295C728.848 248.341 728.212 247.379 727.773 246.409H727.341V252H717.795ZM727.273 234.545C727.273 236.621 727.561 238.432 728.136 239.977C728.712 241.523 729.545 242.727 730.636 243.591C731.727 244.439 733.053 244.864 734.614 244.864C736.189 244.864 737.523 244.432 738.614 243.568C739.705 242.689 740.53 241.477 741.091 239.932C741.667 238.371 741.955 236.576 741.955 234.545C741.955 232.53 741.674 230.758 741.114 229.227C740.553 227.697 739.727 226.5 738.636 225.636C737.545 224.773 736.205 224.341 734.614 224.341C733.038 224.341 731.705 224.758 730.614 225.591C729.538 226.424 728.712 227.606 728.136 229.136C727.561 230.667 727.273 232.47 727.273 234.545ZM758.301 252V217.091H767.528V223.25H767.938C768.665 221.205 769.877 219.591 771.574 218.409C773.271 217.227 775.301 216.636 777.665 216.636C780.059 216.636 782.097 217.235 783.778 218.432C785.46 219.614 786.581 221.22 787.142 223.25H787.506C788.218 221.25 789.506 219.652 791.369 218.455C793.248 217.242 795.468 216.636 798.028 216.636C801.286 216.636 803.93 217.674 805.96 219.75C808.006 221.811 809.028 224.735 809.028 228.523V252H799.369V230.432C799.369 228.492 798.854 227.038 797.824 226.068C796.794 225.098 795.506 224.614 793.96 224.614C792.203 224.614 790.831 225.174 789.847 226.295C788.862 227.402 788.369 228.864 788.369 230.682V252H778.983V230.227C778.983 228.515 778.491 227.152 777.506 226.136C776.536 225.121 775.256 224.614 773.665 224.614C772.589 224.614 771.619 224.886 770.756 225.432C769.907 225.962 769.233 226.712 768.733 227.682C768.233 228.636 767.983 229.758 767.983 231.045V252H758.301ZM816.676 252V217.091H826.358V252H816.676ZM821.54 212.591C820.1 212.591 818.866 212.114 817.835 211.159C816.82 210.189 816.312 209.03 816.312 207.682C816.312 206.348 816.82 205.205 817.835 204.25C818.866 203.28 820.1 202.795 821.54 202.795C822.979 202.795 824.206 203.28 825.222 204.25C826.252 205.205 826.767 206.348 826.767 207.682C826.767 209.03 826.252 210.189 825.222 211.159C824.206 212.114 822.979 212.591 821.54 212.591ZM852.682 217.091V224.364H831.659V217.091H852.682ZM836.432 208.727H846.114V241.273C846.114 242.167 846.25 242.864 846.523 243.364C846.795 243.848 847.174 244.189 847.659 244.386C848.159 244.583 848.735 244.682 849.386 244.682C849.841 244.682 850.295 244.644 850.75 244.568C851.205 244.477 851.553 244.409 851.795 244.364L853.318 251.568C852.833 251.72 852.152 251.894 851.273 252.091C850.394 252.303 849.326 252.432 848.068 252.477C845.735 252.568 843.689 252.258 841.932 251.545C840.189 250.833 838.833 249.727 837.864 248.227C836.894 246.727 836.417 244.833 836.432 242.545V208.727ZM892.369 217.091V224.364H871.347V217.091H892.369ZM876.119 208.727H885.801V241.273C885.801 242.167 885.938 242.864 886.21 243.364C886.483 243.848 886.862 244.189 887.347 244.386C887.847 244.583 888.422 244.682 889.074 244.682C889.528 244.682 889.983 244.644 890.438 244.568C890.892 244.477 891.241 244.409 891.483 244.364L893.006 251.568C892.521 251.72 891.839 251.894 890.96 252.091C890.081 252.303 889.013 252.432 887.756 252.477C885.422 252.568 883.377 252.258 881.619 251.545C879.877 250.833 878.521 249.727 877.551 248.227C876.581 246.727 876.104 244.833 876.119 242.545V208.727ZM914.074 252.682C910.544 252.682 907.491 251.932 904.915 250.432C902.354 248.917 900.377 246.811 898.983 244.114C897.589 241.402 896.892 238.258 896.892 234.682C896.892 231.076 897.589 227.924 898.983 225.227C900.377 222.515 902.354 220.409 904.915 218.909C907.491 217.394 910.544 216.636 914.074 216.636C917.604 216.636 920.65 217.394 923.21 218.909C925.786 220.409 927.771 222.515 929.165 225.227C930.559 227.924 931.256 231.076 931.256 234.682C931.256 238.258 930.559 241.402 929.165 244.114C927.771 246.811 925.786 248.917 923.21 250.432C920.65 251.932 917.604 252.682 914.074 252.682ZM914.119 245.182C915.725 245.182 917.066 244.727 918.142 243.818C919.218 242.894 920.028 241.636 920.574 240.045C921.134 238.455 921.415 236.644 921.415 234.614C921.415 232.583 921.134 230.773 920.574 229.182C920.028 227.591 919.218 226.333 918.142 225.409C917.066 224.485 915.725 224.023 914.119 224.023C912.498 224.023 911.134 224.485 910.028 225.409C908.938 226.333 908.112 227.591 907.551 229.182C907.006 230.773 906.733 232.583 906.733 234.614C906.733 236.644 907.006 238.455 907.551 240.045C908.112 241.636 908.938 242.894 910.028 243.818C911.134 244.727 912.498 245.182 914.119 245.182Z" fill="white"/>
<path d="M952.545 252V205.455H983.909V213.568H962.386V224.659H982.295V232.773H962.386V243.886H984V252H952.545ZM1001.51 252.659C999.278 252.659 997.294 252.273 995.551 251.5C993.809 250.712 992.43 249.553 991.415 248.023C990.415 246.477 989.915 244.553 989.915 242.25C989.915 240.311 990.271 238.682 990.983 237.364C991.695 236.045 992.665 234.985 993.892 234.182C995.119 233.379 996.513 232.773 998.074 232.364C999.65 231.955 1001.3 231.667 1003.03 231.5C1005.06 231.288 1006.7 231.091 1007.94 230.909C1009.18 230.712 1010.08 230.424 1010.64 230.045C1011.2 229.667 1011.48 229.106 1011.48 228.364V228.227C1011.48 226.788 1011.03 225.674 1010.12 224.886C1009.23 224.098 1007.95 223.705 1006.3 223.705C1004.56 223.705 1003.17 224.091 1002.14 224.864C1001.11 225.621 1000.43 226.576 1000.1 227.727L991.142 227C991.597 224.879 992.491 223.045 993.824 221.5C995.157 219.939 996.877 218.742 998.983 217.909C1001.1 217.061 1003.56 216.636 1006.35 216.636C1008.29 216.636 1010.14 216.864 1011.91 217.318C1013.7 217.773 1015.29 218.477 1016.66 219.432C1018.06 220.386 1019.16 221.614 1019.96 223.114C1020.76 224.598 1021.16 226.379 1021.16 228.455V252H1011.98V247.159H1011.71C1011.15 248.25 1010.4 249.212 1009.46 250.045C1008.52 250.864 1007.39 251.508 1006.07 251.977C1004.76 252.432 1003.23 252.659 1001.51 252.659ZM1004.28 245.977C1005.7 245.977 1006.96 245.697 1008.05 245.136C1009.14 244.561 1010 243.788 1010.62 242.818C1011.24 241.848 1011.55 240.75 1011.55 239.523V235.818C1011.25 236.015 1010.83 236.197 1010.3 236.364C1009.79 236.515 1009.2 236.659 1008.55 236.795C1007.9 236.917 1007.25 237.03 1006.6 237.136C1005.95 237.227 1005.35 237.311 1004.82 237.386C1003.69 237.553 1002.7 237.818 1001.85 238.182C1001 238.545 1000.34 239.038 999.869 239.659C999.4 240.265 999.165 241.023 999.165 241.932C999.165 243.25 999.642 244.258 1000.6 244.955C1001.57 245.636 1002.79 245.977 1004.28 245.977ZM1057.72 227.045L1048.86 227.591C1048.71 226.833 1048.38 226.152 1047.88 225.545C1047.38 224.924 1046.72 224.432 1045.9 224.068C1045.1 223.689 1044.14 223.5 1043.02 223.5C1041.52 223.5 1040.25 223.818 1039.22 224.455C1038.19 225.076 1037.68 225.909 1037.68 226.955C1037.68 227.788 1038.01 228.492 1038.68 229.068C1039.34 229.644 1040.49 230.106 1042.11 230.455L1048.43 231.727C1051.82 232.424 1054.35 233.545 1056.02 235.091C1057.68 236.636 1058.52 238.667 1058.52 241.182C1058.52 243.47 1057.84 245.477 1056.49 247.205C1055.16 248.932 1053.33 250.28 1050.99 251.25C1048.68 252.205 1046 252.682 1042.97 252.682C1038.35 252.682 1034.67 251.72 1031.93 249.795C1029.2 247.856 1027.6 245.22 1027.13 241.886L1036.65 241.386C1036.94 242.795 1037.64 243.871 1038.74 244.614C1039.85 245.341 1041.27 245.705 1042.99 245.705C1044.69 245.705 1046.05 245.379 1047.09 244.727C1048.13 244.061 1048.66 243.205 1048.68 242.159C1048.66 241.28 1048.29 240.561 1047.56 240C1046.84 239.424 1045.71 238.985 1044.2 238.682L1038.15 237.477C1034.74 236.795 1032.21 235.614 1030.54 233.932C1028.89 232.25 1028.06 230.106 1028.06 227.5C1028.06 225.258 1028.67 223.326 1029.88 221.705C1031.11 220.083 1032.83 218.833 1035.04 217.955C1037.27 217.076 1039.87 216.636 1042.86 216.636C1047.27 216.636 1050.74 217.568 1053.27 219.432C1055.81 221.295 1057.3 223.833 1057.72 227.045ZM1070.59 265.091C1069.36 265.091 1068.21 264.992 1067.14 264.795C1066.08 264.614 1065.2 264.379 1064.5 264.091L1066.68 256.864C1067.82 257.212 1068.84 257.402 1069.75 257.432C1070.67 257.462 1071.47 257.25 1072.14 256.795C1072.82 256.341 1073.37 255.568 1073.8 254.477L1074.36 253L1061.84 217.091H1072.02L1079.25 242.727H1079.61L1086.91 217.091H1097.16L1083.59 255.773C1082.94 257.652 1082.05 259.288 1080.93 260.682C1079.83 262.091 1078.42 263.174 1076.73 263.932C1075.03 264.705 1072.98 265.091 1070.59 265.091Z" fill="#F5F5DC"/>
<path d="M1110.32 252H1099.77L1115.84 205.455H1128.52L1144.57 252H1134.02L1122.36 216.091H1122L1110.32 252ZM1109.66 233.705H1134.57V241.386H1109.66V233.705ZM1164.14 252.682C1160.56 252.682 1157.48 251.924 1154.91 250.409C1152.35 248.879 1150.38 246.758 1149 244.045C1147.64 241.333 1146.95 238.212 1146.95 234.682C1146.95 231.106 1147.64 227.97 1149.02 225.273C1150.42 222.561 1152.39 220.447 1154.95 218.932C1157.52 217.402 1160.56 216.636 1164.09 216.636C1167.14 216.636 1169.8 217.189 1172.09 218.295C1174.38 219.402 1176.19 220.955 1177.52 222.955C1178.86 224.955 1179.59 227.303 1179.73 230H1170.59C1170.33 228.258 1169.65 226.856 1168.55 225.795C1167.45 224.72 1166.02 224.182 1164.25 224.182C1162.75 224.182 1161.44 224.591 1160.32 225.409C1159.21 226.212 1158.35 227.386 1157.73 228.932C1157.11 230.477 1156.8 232.348 1156.8 234.545C1156.8 236.773 1157.1 238.667 1157.7 240.227C1158.33 241.788 1159.2 242.977 1160.32 243.795C1161.44 244.614 1162.75 245.023 1164.25 245.023C1165.36 245.023 1166.35 244.795 1167.23 244.341C1168.12 243.886 1168.86 243.227 1169.43 242.364C1170.02 241.485 1170.41 240.432 1170.59 239.205H1179.73C1179.58 241.871 1178.85 244.22 1177.55 246.25C1176.26 248.265 1174.48 249.841 1172.2 250.977C1169.93 252.114 1167.24 252.682 1164.14 252.682ZM1201.7 252.682C1198.12 252.682 1195.05 251.924 1192.47 250.409C1189.91 248.879 1187.94 246.758 1186.56 244.045C1185.2 241.333 1184.52 238.212 1184.52 234.682C1184.52 231.106 1185.21 227.97 1186.59 225.273C1187.98 222.561 1189.96 220.447 1192.52 218.932C1195.08 217.402 1198.12 216.636 1201.65 216.636C1204.7 216.636 1207.37 217.189 1209.65 218.295C1211.94 219.402 1213.75 220.955 1215.09 222.955C1216.42 224.955 1217.15 227.303 1217.29 230H1208.15C1207.9 228.258 1207.21 226.856 1206.11 225.795C1205.02 224.72 1203.59 224.182 1201.81 224.182C1200.31 224.182 1199 224.591 1197.88 225.409C1196.77 226.212 1195.91 227.386 1195.29 228.932C1194.67 230.477 1194.36 232.348 1194.36 234.545C1194.36 236.773 1194.66 238.667 1195.27 240.227C1195.89 241.788 1196.76 242.977 1197.88 243.795C1199 244.614 1200.31 245.023 1201.81 245.023C1202.92 245.023 1203.91 244.795 1204.79 244.341C1205.68 243.886 1206.42 243.227 1206.99 242.364C1207.59 241.485 1207.97 240.432 1208.15 239.205H1217.29C1217.14 241.871 1216.41 244.22 1215.11 246.25C1213.82 248.265 1212.04 249.841 1209.77 250.977C1207.49 252.114 1204.8 252.682 1201.7 252.682ZM1239.4 252.682C1235.81 252.682 1232.72 251.955 1230.12 250.5C1227.55 249.03 1225.56 246.955 1224.17 244.273C1222.78 241.576 1222.08 238.386 1222.08 234.705C1222.08 231.114 1222.78 227.962 1224.17 225.25C1225.56 222.538 1227.53 220.424 1230.06 218.909C1232.6 217.394 1235.59 216.636 1239.01 216.636C1241.31 216.636 1243.46 217.008 1245.44 217.75C1247.44 218.477 1249.19 219.576 1250.67 221.045C1252.17 222.515 1253.34 224.364 1254.17 226.591C1255 228.803 1255.42 231.394 1255.42 234.364V237.023H1225.94V231.023H1246.31C1246.31 229.629 1246 228.394 1245.4 227.318C1244.79 226.242 1243.95 225.402 1242.88 224.795C1241.81 224.174 1240.58 223.864 1239.17 223.864C1237.7 223.864 1236.4 224.205 1235.26 224.886C1234.14 225.553 1233.26 226.455 1232.62 227.591C1231.99 228.712 1231.66 229.962 1231.65 231.341V237.045C1231.65 238.773 1231.97 240.265 1232.6 241.523C1233.25 242.78 1234.17 243.75 1235.35 244.432C1236.53 245.114 1237.94 245.455 1239.56 245.455C1240.63 245.455 1241.62 245.303 1242.51 245C1243.41 244.697 1244.17 244.242 1244.81 243.636C1245.44 243.03 1245.93 242.288 1246.26 241.409L1255.22 242C1254.76 244.152 1253.83 246.03 1252.42 247.636C1251.03 249.227 1249.22 250.47 1247.01 251.364C1244.81 252.242 1242.28 252.682 1239.4 252.682ZM1290.78 227.045L1281.92 227.591C1281.77 226.833 1281.44 226.152 1280.94 225.545C1280.44 224.924 1279.78 224.432 1278.97 224.068C1278.16 223.689 1277.2 223.5 1276.08 223.5C1274.58 223.5 1273.31 223.818 1272.28 224.455C1271.25 225.076 1270.74 225.909 1270.74 226.955C1270.74 227.788 1271.07 228.492 1271.74 229.068C1272.41 229.644 1273.55 230.106 1275.17 230.455L1281.49 231.727C1284.88 232.424 1287.41 233.545 1289.08 235.091C1290.75 236.636 1291.58 238.667 1291.58 241.182C1291.58 243.47 1290.91 245.477 1289.56 247.205C1288.22 248.932 1286.39 250.28 1284.06 251.25C1281.74 252.205 1279.06 252.682 1276.03 252.682C1271.41 252.682 1267.73 251.72 1264.99 249.795C1262.26 247.856 1260.66 245.22 1260.19 241.886L1269.72 241.386C1270 242.795 1270.7 243.871 1271.81 244.614C1272.91 245.341 1274.33 245.705 1276.06 245.705C1277.75 245.705 1279.12 245.379 1280.15 244.727C1281.19 244.061 1281.72 243.205 1281.74 242.159C1281.72 241.28 1281.35 240.561 1280.62 240C1279.9 239.424 1278.78 238.985 1277.26 238.682L1271.22 237.477C1267.81 236.795 1265.27 235.614 1263.6 233.932C1261.95 232.25 1261.12 230.106 1261.12 227.5C1261.12 225.258 1261.73 223.326 1262.94 221.705C1264.17 220.083 1265.89 218.833 1268.1 217.955C1270.33 217.076 1272.94 216.636 1275.92 216.636C1280.33 216.636 1283.8 217.568 1286.33 219.432C1288.88 221.295 1290.36 223.833 1290.78 227.045ZM1326.72 227.045L1317.86 227.591C1317.71 226.833 1317.38 226.152 1316.88 225.545C1316.38 224.924 1315.72 224.432 1314.9 224.068C1314.1 223.689 1313.14 223.5 1312.02 223.5C1310.52 223.5 1309.25 223.818 1308.22 224.455C1307.19 225.076 1306.68 225.909 1306.68 226.955C1306.68 227.788 1307.01 228.492 1307.68 229.068C1308.34 229.644 1309.49 230.106 1311.11 230.455L1317.43 231.727C1320.82 232.424 1323.35 233.545 1325.02 235.091C1326.68 236.636 1327.52 238.667 1327.52 241.182C1327.52 243.47 1326.84 245.477 1325.49 247.205C1324.16 248.932 1322.33 250.28 1319.99 251.25C1317.68 252.205 1315 252.682 1311.97 252.682C1307.35 252.682 1303.67 251.72 1300.93 249.795C1298.2 247.856 1296.6 245.22 1296.13 241.886L1305.65 241.386C1305.94 242.795 1306.64 243.871 1307.74 244.614C1308.85 245.341 1310.27 245.705 1311.99 245.705C1313.69 245.705 1315.05 245.379 1316.09 244.727C1317.13 244.061 1317.66 243.205 1317.68 242.159C1317.66 241.28 1317.29 240.561 1316.56 240C1315.84 239.424 1314.71 238.985 1313.2 238.682L1307.15 237.477C1303.74 236.795 1301.21 235.614 1299.54 233.932C1297.89 232.25 1297.06 230.106 1297.06 227.5C1297.06 225.258 1297.67 223.326 1298.88 221.705C1300.11 220.083 1301.83 218.833 1304.04 217.955C1306.27 217.076 1308.87 216.636 1311.86 216.636C1316.27 216.636 1319.74 217.568 1322.27 219.432C1324.81 221.295 1326.3 223.833 1326.72 227.045Z" fill="#3453C0"/>
<path d="M523.17 912V885.818H538.972V888.631H526.341V897.477H538.153V900.29H526.341V909.188H539.176V912H523.17ZM550.055 912.46C548.811 912.46 547.682 912.226 546.668 911.757C545.653 911.28 544.848 910.594 544.251 909.699C543.655 908.795 543.357 907.705 543.357 906.426C543.357 905.301 543.578 904.389 544.021 903.69C544.464 902.983 545.057 902.429 545.798 902.028C546.54 901.628 547.358 901.33 548.253 901.134C549.156 900.929 550.064 900.767 550.976 900.648C552.169 900.494 553.136 900.379 553.878 900.303C554.628 900.217 555.173 900.077 555.514 899.881C555.864 899.685 556.038 899.344 556.038 898.858V898.756C556.038 897.494 555.693 896.514 555.003 895.815C554.321 895.116 553.286 894.767 551.896 894.767C550.456 894.767 549.327 895.082 548.509 895.713C547.69 896.344 547.115 897.017 546.783 897.733L543.919 896.71C544.43 895.517 545.112 894.588 545.964 893.923C546.825 893.25 547.763 892.781 548.777 892.517C549.8 892.244 550.805 892.108 551.794 892.108C552.425 892.108 553.149 892.185 553.967 892.338C554.794 892.483 555.591 892.786 556.358 893.246C557.134 893.706 557.777 894.401 558.288 895.33C558.8 896.259 559.055 897.503 559.055 899.062V912H556.038V909.341H555.885C555.68 909.767 555.339 910.223 554.862 910.709C554.385 911.195 553.75 911.608 552.957 911.949C552.165 912.29 551.197 912.46 550.055 912.46ZM550.516 909.75C551.709 909.75 552.714 909.516 553.533 909.047C554.359 908.578 554.982 907.973 555.399 907.232C555.825 906.49 556.038 905.71 556.038 904.892V902.131C555.911 902.284 555.629 902.425 555.195 902.553C554.768 902.672 554.274 902.778 553.712 902.872C553.158 902.957 552.616 903.034 552.088 903.102C551.568 903.162 551.146 903.213 550.822 903.256C550.038 903.358 549.305 903.524 548.624 903.754C547.95 903.976 547.405 904.312 546.987 904.764C546.578 905.207 546.374 905.812 546.374 906.58C546.374 907.628 546.761 908.42 547.537 908.957C548.321 909.486 549.314 909.75 550.516 909.75ZM578.471 896.761L575.761 897.528C575.591 897.077 575.339 896.638 575.007 896.212C574.683 895.777 574.24 895.419 573.677 895.138C573.115 894.857 572.395 894.716 571.517 894.716C570.315 894.716 569.314 894.993 568.512 895.547C567.72 896.092 567.324 896.787 567.324 897.631C567.324 898.381 567.596 898.973 568.142 899.408C568.687 899.842 569.539 900.205 570.699 900.494L573.613 901.21C575.369 901.636 576.677 902.288 577.538 903.166C578.399 904.036 578.829 905.156 578.829 906.528C578.829 907.653 578.505 908.659 577.858 909.545C577.218 910.432 576.324 911.131 575.173 911.642C574.022 912.153 572.684 912.409 571.159 912.409C569.156 912.409 567.498 911.974 566.186 911.105C564.873 910.236 564.042 908.966 563.693 907.295L566.556 906.58C566.829 907.636 567.345 908.429 568.103 908.957C568.87 909.486 569.872 909.75 571.108 909.75C572.514 909.75 573.63 909.452 574.457 908.855C575.292 908.25 575.71 907.526 575.71 906.682C575.71 906 575.471 905.429 574.994 904.969C574.517 904.5 573.784 904.151 572.795 903.92L569.522 903.153C567.724 902.727 566.403 902.067 565.559 901.172C564.724 900.268 564.306 899.139 564.306 897.784C564.306 896.676 564.618 895.696 565.24 894.844C565.87 893.991 566.727 893.322 567.809 892.837C568.9 892.351 570.136 892.108 571.517 892.108C573.46 892.108 574.985 892.534 576.093 893.386C577.21 894.239 578.002 895.364 578.471 896.761ZM583.371 912V892.364H586.388V912H583.371ZM584.905 889.091C584.317 889.091 583.81 888.891 583.384 888.49C582.966 888.089 582.757 887.608 582.757 887.045C582.757 886.483 582.966 886.001 583.384 885.601C583.81 885.2 584.317 885 584.905 885C585.493 885 585.996 885.2 586.413 885.601C586.839 886.001 587.053 886.483 587.053 887.045C587.053 887.608 586.839 888.089 586.413 888.49C585.996 888.891 585.493 889.091 584.905 889.091ZM594.931 885.818V912H591.914V885.818H594.931ZM602.4 919.364C601.888 919.364 601.433 919.321 601.032 919.236C600.631 919.159 600.354 919.082 600.201 919.006L600.968 916.347C601.701 916.534 602.349 916.602 602.911 916.551C603.474 916.5 603.972 916.249 604.407 915.797C604.85 915.354 605.255 914.634 605.621 913.636L606.184 912.102L598.923 892.364H602.195L607.616 908.011H607.82L613.241 892.364H616.513L608.178 914.864C607.803 915.878 607.339 916.717 606.785 917.382C606.231 918.055 605.587 918.554 604.854 918.878C604.13 919.202 603.312 919.364 602.4 919.364ZM630.621 912V892.364H633.638V912H630.621ZM632.155 889.091C631.567 889.091 631.06 888.891 630.634 888.49C630.216 888.089 630.007 887.608 630.007 887.045C630.007 886.483 630.216 886.001 630.634 885.601C631.06 885.2 631.567 885 632.155 885C632.743 885 633.246 885.2 633.663 885.601C634.089 886.001 634.303 886.483 634.303 887.045C634.303 887.608 634.089 888.089 633.663 888.49C633.246 888.891 632.743 889.091 632.155 889.091ZM639.164 912V892.364H642.078V895.432H642.334C642.743 894.384 643.404 893.57 644.316 892.99C645.228 892.402 646.323 892.108 647.601 892.108C648.897 892.108 649.975 892.402 650.836 892.99C651.705 893.57 652.382 894.384 652.868 895.432H653.073C653.576 894.418 654.33 893.612 655.336 893.016C656.341 892.411 657.547 892.108 658.953 892.108C660.709 892.108 662.145 892.658 663.262 893.757C664.378 894.848 664.936 896.548 664.936 898.858V912H661.919V898.858C661.919 897.409 661.523 896.374 660.73 895.751C659.938 895.129 659.005 894.818 657.931 894.818C656.55 894.818 655.48 895.236 654.722 896.071C653.963 896.898 653.584 897.946 653.584 899.216V912H650.516V898.551C650.516 897.435 650.154 896.536 649.429 895.854C648.705 895.163 647.772 894.818 646.63 894.818C645.846 894.818 645.113 895.027 644.431 895.445C643.757 895.862 643.212 896.442 642.794 897.183C642.385 897.916 642.181 898.764 642.181 899.727V912H639.164ZM670.453 919.364V892.364H673.368V895.483H673.725C673.947 895.142 674.254 894.707 674.646 894.179C675.047 893.642 675.618 893.165 676.359 892.747C677.109 892.321 678.123 892.108 679.402 892.108C681.055 892.108 682.512 892.521 683.774 893.348C685.035 894.175 686.02 895.347 686.727 896.864C687.434 898.381 687.788 900.17 687.788 902.233C687.788 904.312 687.434 906.115 686.727 907.641C686.02 909.158 685.039 910.334 683.787 911.169C682.534 911.996 681.089 912.409 679.453 912.409C678.191 912.409 677.181 912.2 676.423 911.783C675.664 911.357 675.081 910.875 674.672 910.338C674.262 909.793 673.947 909.341 673.725 908.983H673.47V919.364H670.453ZM673.419 902.182C673.419 903.665 673.636 904.973 674.071 906.107C674.505 907.232 675.14 908.114 675.975 908.753C676.811 909.384 677.833 909.699 679.044 909.699C680.305 909.699 681.358 909.366 682.201 908.702C683.054 908.028 683.693 907.125 684.119 905.991C684.554 904.849 684.771 903.58 684.771 902.182C684.771 900.801 684.558 899.557 684.132 898.449C683.714 897.332 683.079 896.45 682.227 895.803C681.383 895.146 680.322 894.818 679.044 894.818C677.816 894.818 676.785 895.129 675.95 895.751C675.115 896.365 674.484 897.226 674.058 898.334C673.632 899.433 673.419 900.716 673.419 902.182ZM695.407 885.818V912H692.39V885.818H695.407ZM709.166 912.409C707.274 912.409 705.642 911.991 704.27 911.156C702.906 910.312 701.854 909.136 701.112 907.628C700.379 906.111 700.013 904.347 700.013 902.335C700.013 900.324 700.379 898.551 701.112 897.017C701.854 895.474 702.885 894.273 704.206 893.412C705.536 892.543 707.087 892.108 708.859 892.108C709.882 892.108 710.892 892.278 711.889 892.619C712.886 892.96 713.794 893.514 714.612 894.281C715.43 895.04 716.082 896.045 716.568 897.298C717.054 898.551 717.297 900.094 717.297 901.926V903.205H702.161V900.597H714.229C714.229 899.489 714.007 898.5 713.564 897.631C713.129 896.761 712.507 896.075 711.697 895.572C710.896 895.07 709.95 894.818 708.859 894.818C707.658 894.818 706.618 895.116 705.74 895.713C704.871 896.301 704.202 897.068 703.733 898.014C703.264 898.96 703.03 899.974 703.03 901.057V902.795C703.03 904.278 703.286 905.536 703.797 906.567C704.317 907.589 705.037 908.369 705.957 908.906C706.878 909.435 707.947 909.699 709.166 909.699C709.959 909.699 710.675 909.588 711.314 909.366C711.962 909.136 712.52 908.795 712.989 908.344C713.457 907.884 713.82 907.312 714.075 906.631L716.99 907.449C716.683 908.438 716.168 909.307 715.443 910.057C714.719 910.798 713.824 911.378 712.759 911.795C711.693 912.205 710.496 912.409 709.166 912.409ZM721.886 912V892.364H724.801V895.432H725.057C725.466 894.384 726.126 893.57 727.038 892.99C727.95 892.402 729.045 892.108 730.324 892.108C731.619 892.108 732.697 892.402 733.558 892.99C734.428 893.57 735.105 894.384 735.591 895.432H735.795C736.298 894.418 737.053 893.612 738.058 893.016C739.064 892.411 740.27 892.108 741.676 892.108C743.432 892.108 744.868 892.658 745.984 893.757C747.101 894.848 747.659 896.548 747.659 898.858V912H744.642V898.858C744.642 897.409 744.246 896.374 743.453 895.751C742.661 895.129 741.727 894.818 740.653 894.818C739.273 894.818 738.203 895.236 737.445 896.071C736.686 896.898 736.307 897.946 736.307 899.216V912H733.239V898.551C733.239 897.435 732.876 896.536 732.152 895.854C731.428 895.163 730.494 894.818 729.352 894.818C728.568 894.818 727.835 895.027 727.153 895.445C726.48 895.862 725.935 896.442 725.517 897.183C725.108 897.916 724.903 898.764 724.903 899.727V912H721.886ZM761.408 912.409C759.516 912.409 757.884 911.991 756.512 911.156C755.148 910.312 754.096 909.136 753.354 907.628C752.621 906.111 752.255 904.347 752.255 902.335C752.255 900.324 752.621 898.551 753.354 897.017C754.096 895.474 755.127 894.273 756.448 893.412C757.778 892.543 759.329 892.108 761.102 892.108C762.124 892.108 763.134 892.278 764.131 892.619C765.129 892.96 766.036 893.514 766.854 894.281C767.673 895.04 768.325 896.045 768.81 897.298C769.296 898.551 769.539 900.094 769.539 901.926V903.205H754.403V900.597H766.471C766.471 899.489 766.249 898.5 765.806 897.631C765.371 896.761 764.749 896.075 763.94 895.572C763.138 895.07 762.192 894.818 761.102 894.818C759.9 894.818 758.86 895.116 757.982 895.713C757.113 896.301 756.444 897.068 755.975 898.014C755.506 898.96 755.272 899.974 755.272 901.057V902.795C755.272 904.278 755.528 905.536 756.039 906.567C756.559 907.589 757.279 908.369 758.2 908.906C759.12 909.435 760.19 909.699 761.408 909.699C762.201 909.699 762.917 909.588 763.556 909.366C764.204 909.136 764.762 908.795 765.231 908.344C765.7 907.884 766.062 907.312 766.317 906.631L769.232 907.449C768.925 908.438 768.41 909.307 767.685 910.057C766.961 910.798 766.066 911.378 765.001 911.795C763.935 912.205 762.738 912.409 761.408 912.409ZM777.146 900.188V912H774.129V892.364H777.043V895.432H777.299C777.759 894.435 778.458 893.634 779.396 893.028C780.333 892.415 781.543 892.108 783.026 892.108C784.356 892.108 785.519 892.381 786.516 892.926C787.513 893.463 788.289 894.281 788.843 895.381C789.397 896.472 789.674 897.852 789.674 899.523V912H786.657V899.727C786.657 898.185 786.256 896.983 785.455 896.122C784.654 895.253 783.555 894.818 782.157 894.818C781.194 894.818 780.333 895.027 779.575 895.445C778.825 895.862 778.232 896.472 777.798 897.273C777.363 898.074 777.146 899.045 777.146 900.188ZM803.727 892.364V894.92H793.551V892.364H803.727ZM796.517 887.659H799.534V906.375C799.534 907.227 799.657 907.866 799.904 908.293C800.16 908.71 800.484 908.991 800.876 909.136C801.277 909.273 801.699 909.341 802.142 909.341C802.474 909.341 802.747 909.324 802.96 909.29C803.173 909.247 803.343 909.213 803.471 909.188L804.085 911.898C803.88 911.974 803.595 912.051 803.228 912.128C802.862 912.213 802.397 912.256 801.835 912.256C800.983 912.256 800.147 912.072 799.329 911.706C798.52 911.339 797.846 910.781 797.309 910.031C796.781 909.281 796.517 908.335 796.517 907.193V887.659ZM816.287 912.409C814.395 912.409 812.763 911.991 811.391 911.156C810.027 910.312 808.975 909.136 808.233 907.628C807.5 906.111 807.134 904.347 807.134 902.335C807.134 900.324 807.5 898.551 808.233 897.017C808.975 895.474 810.006 894.273 811.327 893.412C812.657 892.543 814.208 892.108 815.98 892.108C817.003 892.108 818.013 892.278 819.01 892.619C820.007 892.96 820.915 893.514 821.733 894.281C822.551 895.04 823.203 896.045 823.689 897.298C824.175 898.551 824.418 900.094 824.418 901.926V903.205H809.282V900.597H821.35C821.35 899.489 821.128 898.5 820.685 897.631C820.25 896.761 819.628 896.075 818.819 895.572C818.017 895.07 817.071 894.818 815.98 894.818C814.779 894.818 813.739 895.116 812.861 895.713C811.992 896.301 811.323 897.068 810.854 898.014C810.385 898.96 810.151 899.974 810.151 901.057V902.795C810.151 904.278 810.407 905.536 810.918 906.567C811.438 907.589 812.158 908.369 813.078 908.906C813.999 909.435 815.069 909.699 816.287 909.699C817.08 909.699 817.796 909.588 818.435 909.366C819.083 909.136 819.641 908.795 820.11 908.344C820.578 907.884 820.941 907.312 821.196 906.631L824.111 907.449C823.804 908.438 823.289 909.307 822.564 910.057C821.84 910.798 820.945 911.378 819.88 911.795C818.814 912.205 817.617 912.409 816.287 912.409ZM836.422 912.409C834.786 912.409 833.341 911.996 832.088 911.169C830.836 910.334 829.855 909.158 829.148 907.641C828.441 906.115 828.087 904.312 828.087 902.233C828.087 900.17 828.441 898.381 829.148 896.864C829.855 895.347 830.84 894.175 832.101 893.348C833.363 892.521 834.82 892.108 836.473 892.108C837.752 892.108 838.762 892.321 839.503 892.747C840.253 893.165 840.824 893.642 841.216 894.179C841.617 894.707 841.928 895.142 842.15 895.483H842.405V885.818H845.422V912H842.507V908.983H842.15C841.928 909.341 841.613 909.793 841.203 910.338C840.794 910.875 840.211 911.357 839.452 911.783C838.694 912.2 837.684 912.409 836.422 912.409ZM836.831 909.699C838.042 909.699 839.064 909.384 839.9 908.753C840.735 908.114 841.37 907.232 841.804 906.107C842.239 904.973 842.456 903.665 842.456 902.182C842.456 900.716 842.243 899.433 841.817 898.334C841.391 897.226 840.76 896.365 839.925 895.751C839.09 895.129 838.059 894.818 836.831 894.818C835.553 894.818 834.488 895.146 833.635 895.803C832.792 896.45 832.157 897.332 831.73 898.449C831.313 899.557 831.104 900.801 831.104 902.182C831.104 903.58 831.317 904.849 831.743 905.991C832.178 907.125 832.817 908.028 833.661 908.702C834.513 909.366 835.57 909.699 836.831 909.699ZM865.89 877.381V920.438H863.333V877.381H865.89ZM898.121 892.364C897.968 891.068 897.346 890.062 896.255 889.347C895.164 888.631 893.826 888.273 892.241 888.273C891.082 888.273 890.067 888.46 889.198 888.835C888.337 889.21 887.664 889.726 887.178 890.382C886.701 891.038 886.462 891.784 886.462 892.619C886.462 893.318 886.629 893.919 886.961 894.422C887.302 894.916 887.737 895.33 888.265 895.662C888.793 895.986 889.347 896.254 889.927 896.467C890.506 896.672 891.039 896.838 891.525 896.966L894.184 897.682C894.866 897.861 895.624 898.108 896.46 898.423C897.303 898.739 898.109 899.169 898.876 899.714C899.651 900.251 900.29 900.942 900.793 901.786C901.296 902.629 901.548 903.665 901.548 904.892C901.548 906.307 901.177 907.585 900.435 908.727C899.702 909.869 898.629 910.777 897.214 911.45C895.808 912.124 894.099 912.46 892.087 912.46C890.212 912.46 888.589 912.158 887.217 911.553C885.853 910.947 884.779 910.104 883.995 909.021C883.219 907.939 882.781 906.682 882.678 905.25H885.951C886.036 906.239 886.369 907.057 886.948 907.705C887.536 908.344 888.278 908.821 889.173 909.136C890.076 909.443 891.048 909.597 892.087 909.597C893.298 909.597 894.384 909.401 895.347 909.009C896.31 908.608 897.073 908.054 897.636 907.347C898.198 906.631 898.479 905.795 898.479 904.841C898.479 903.972 898.237 903.264 897.751 902.719C897.265 902.173 896.626 901.73 895.833 901.389C895.04 901.048 894.184 900.75 893.263 900.494L890.042 899.574C887.996 898.986 886.377 898.146 885.184 897.055C883.991 895.964 883.394 894.537 883.394 892.773C883.394 891.307 883.79 890.028 884.583 888.938C885.384 887.838 886.458 886.986 887.805 886.381C889.16 885.767 890.673 885.46 892.343 885.46C894.031 885.46 895.531 885.763 896.843 886.368C898.156 886.964 899.195 887.783 899.962 888.822C900.738 889.862 901.147 891.043 901.19 892.364H898.121ZM914.584 912.409C912.692 912.409 911.06 911.991 909.688 911.156C908.324 910.312 907.272 909.136 906.53 907.628C905.797 906.111 905.431 904.347 905.431 902.335C905.431 900.324 905.797 898.551 906.53 897.017C907.272 895.474 908.303 894.273 909.624 893.412C910.953 892.543 912.505 892.108 914.277 892.108C915.3 892.108 916.31 892.278 917.307 892.619C918.304 892.96 919.212 893.514 920.03 894.281C920.848 895.04 921.5 896.045 921.986 897.298C922.472 898.551 922.715 900.094 922.715 901.926V903.205H907.578V900.597H919.647C919.647 899.489 919.425 898.5 918.982 897.631C918.547 896.761 917.925 896.075 917.115 895.572C916.314 895.07 915.368 894.818 914.277 894.818C913.076 894.818 912.036 895.116 911.158 895.713C910.289 896.301 909.62 897.068 909.151 898.014C908.682 898.96 908.448 899.974 908.448 901.057V902.795C908.448 904.278 908.703 905.536 909.215 906.567C909.735 907.589 910.455 908.369 911.375 908.906C912.296 909.435 913.365 909.699 914.584 909.699C915.377 909.699 916.093 909.588 916.732 909.366C917.38 909.136 917.938 908.795 918.407 908.344C918.875 907.884 919.238 907.312 919.493 906.631L922.408 907.449C922.101 908.438 921.586 909.307 920.861 910.057C920.137 910.798 919.242 911.378 918.176 911.795C917.111 912.205 915.914 912.409 914.584 912.409ZM935.282 912.409C933.441 912.409 931.855 911.974 930.526 911.105C929.196 910.236 928.174 909.038 927.458 907.513C926.742 905.987 926.384 904.244 926.384 902.284C926.384 900.29 926.75 898.53 927.483 897.004C928.225 895.47 929.256 894.273 930.577 893.412C931.907 892.543 933.458 892.108 935.23 892.108C936.611 892.108 937.855 892.364 938.963 892.875C940.071 893.386 940.979 894.102 941.686 895.023C942.394 895.943 942.833 897.017 943.003 898.244H939.986C939.756 897.349 939.245 896.557 938.452 895.866C937.668 895.168 936.611 894.818 935.282 894.818C934.105 894.818 933.074 895.125 932.188 895.739C931.31 896.344 930.624 897.2 930.13 898.308C929.644 899.408 929.401 900.699 929.401 902.182C929.401 903.699 929.64 905.02 930.117 906.145C930.603 907.27 931.284 908.143 932.162 908.766C933.049 909.388 934.088 909.699 935.282 909.699C936.066 909.699 936.777 909.562 937.417 909.29C938.056 909.017 938.597 908.625 939.04 908.114C939.483 907.602 939.799 906.989 939.986 906.273H943.003C942.833 907.432 942.411 908.476 941.738 909.405C941.073 910.325 940.191 911.058 939.091 911.604C938 912.141 936.73 912.409 935.282 912.409ZM959.789 903.972V892.364H962.806V912H959.789V908.676H959.584C959.124 909.673 958.408 910.521 957.436 911.22C956.465 911.911 955.238 912.256 953.755 912.256C952.527 912.256 951.436 911.987 950.482 911.45C949.527 910.905 948.777 910.087 948.232 908.996C947.686 907.896 947.414 906.511 947.414 904.841V892.364H950.431V904.636C950.431 906.068 950.831 907.21 951.632 908.062C952.442 908.915 953.473 909.341 954.726 909.341C955.476 909.341 956.239 909.149 957.015 908.766C957.799 908.382 958.455 907.794 958.983 907.001C959.52 906.209 959.789 905.199 959.789 903.972ZM968.332 912V892.364H971.246V895.33H971.451C971.809 894.358 972.457 893.57 973.394 892.964C974.332 892.359 975.388 892.057 976.565 892.057C976.786 892.057 977.063 892.061 977.396 892.07C977.728 892.078 977.979 892.091 978.15 892.108V895.176C978.048 895.151 977.813 895.112 977.447 895.061C977.089 895.001 976.71 894.972 976.309 894.972C975.354 894.972 974.502 895.172 973.752 895.572C973.011 895.964 972.423 896.51 971.988 897.209C971.562 897.899 971.349 898.687 971.349 899.574V912H968.332ZM989.362 912.409C987.469 912.409 985.837 911.991 984.465 911.156C983.102 910.312 982.049 909.136 981.308 907.628C980.575 906.111 980.208 904.347 980.208 902.335C980.208 900.324 980.575 898.551 981.308 897.017C982.049 895.474 983.08 894.273 984.401 893.412C985.731 892.543 987.282 892.108 989.055 892.108C990.077 892.108 991.087 892.278 992.085 892.619C993.082 892.96 993.989 893.514 994.808 894.281C995.626 895.04 996.278 896.045 996.763 897.298C997.249 898.551 997.492 900.094 997.492 901.926V903.205H982.356V900.597H994.424C994.424 899.489 994.202 898.5 993.759 897.631C993.325 896.761 992.702 896.075 991.893 895.572C991.092 895.07 990.146 894.818 989.055 894.818C987.853 894.818 986.813 895.116 985.935 895.713C985.066 896.301 984.397 897.068 983.928 898.014C983.46 898.96 983.225 899.974 983.225 901.057V902.795C983.225 904.278 983.481 905.536 983.992 906.567C984.512 907.589 985.232 908.369 986.153 908.906C987.073 909.435 988.143 909.699 989.362 909.699C990.154 909.699 990.87 909.588 991.509 909.366C992.157 909.136 992.715 908.795 993.184 908.344C993.653 907.884 994.015 907.312 994.271 906.631L997.185 907.449C996.879 908.438 996.363 909.307 995.638 910.057C994.914 910.798 994.019 911.378 992.954 911.795C991.888 912.205 990.691 912.409 989.362 912.409ZM1016.6 877.381V920.438H1014.05V877.381H1016.6ZM1034.52 912V885.818H1050.32V888.631H1037.69V897.477H1049.5V900.29H1037.69V909.188H1050.52V912H1034.52ZM1061.4 912.46C1060.16 912.46 1059.03 912.226 1058.02 911.757C1057 911.28 1056.2 910.594 1055.6 909.699C1055 908.795 1054.7 907.705 1054.7 906.426C1054.7 905.301 1054.93 904.389 1055.37 903.69C1055.81 902.983 1056.4 902.429 1057.15 902.028C1057.89 901.628 1058.71 901.33 1059.6 901.134C1060.5 900.929 1061.41 900.767 1062.32 900.648C1063.52 900.494 1064.48 900.379 1065.23 900.303C1065.98 900.217 1066.52 900.077 1066.86 899.881C1067.21 899.685 1067.39 899.344 1067.39 898.858V898.756C1067.39 897.494 1067.04 896.514 1066.35 895.815C1065.67 895.116 1064.63 894.767 1063.24 894.767C1061.8 894.767 1060.67 895.082 1059.86 895.713C1059.04 896.344 1058.46 897.017 1058.13 897.733L1055.27 896.71C1055.78 895.517 1056.46 894.588 1057.31 893.923C1058.17 893.25 1059.11 892.781 1060.12 892.517C1061.15 892.244 1062.15 892.108 1063.14 892.108C1063.77 892.108 1064.5 892.185 1065.31 892.338C1066.14 892.483 1066.94 892.786 1067.71 893.246C1068.48 893.706 1069.12 894.401 1069.64 895.33C1070.15 896.259 1070.4 897.503 1070.4 899.062V912H1067.39V909.341H1067.23C1067.03 909.767 1066.69 910.223 1066.21 910.709C1065.73 911.195 1065.1 911.608 1064.31 911.949C1063.51 912.29 1062.55 912.46 1061.4 912.46ZM1061.86 909.75C1063.06 909.75 1064.06 909.516 1064.88 909.047C1065.71 908.578 1066.33 907.973 1066.75 907.232C1067.17 906.49 1067.39 905.71 1067.39 904.892V902.131C1067.26 902.284 1066.98 902.425 1066.54 902.553C1066.12 902.672 1065.62 902.778 1065.06 902.872C1064.51 902.957 1063.96 903.034 1063.44 903.102C1062.92 903.162 1062.49 903.213 1062.17 903.256C1061.39 903.358 1060.65 903.524 1059.97 903.754C1059.3 903.976 1058.75 904.312 1058.33 904.764C1057.93 905.207 1057.72 905.812 1057.72 906.58C1057.72 907.628 1058.11 908.42 1058.88 908.957C1059.67 909.486 1060.66 909.75 1061.86 909.75ZM1089.82 896.761L1087.11 897.528C1086.94 897.077 1086.69 896.638 1086.35 896.212C1086.03 895.777 1085.59 895.419 1085.02 895.138C1084.46 894.857 1083.74 894.716 1082.86 894.716C1081.66 894.716 1080.66 894.993 1079.86 895.547C1079.07 896.092 1078.67 896.787 1078.67 897.631C1078.67 898.381 1078.94 898.973 1079.49 899.408C1080.03 899.842 1080.89 900.205 1082.05 900.494L1084.96 901.21C1086.72 901.636 1088.02 902.288 1088.89 903.166C1089.75 904.036 1090.18 905.156 1090.18 906.528C1090.18 907.653 1089.85 908.659 1089.21 909.545C1088.57 910.432 1087.67 911.131 1086.52 911.642C1085.37 912.153 1084.03 912.409 1082.51 912.409C1080.5 912.409 1078.85 911.974 1077.53 911.105C1076.22 910.236 1075.39 908.966 1075.04 907.295L1077.9 906.58C1078.18 907.636 1078.69 908.429 1079.45 908.957C1080.22 909.486 1081.22 909.75 1082.46 909.75C1083.86 909.75 1084.98 909.452 1085.8 908.855C1086.64 908.25 1087.06 907.526 1087.06 906.682C1087.06 906 1086.82 905.429 1086.34 904.969C1085.86 904.5 1085.13 904.151 1084.14 903.92L1080.87 903.153C1079.07 902.727 1077.75 902.067 1076.91 901.172C1076.07 900.268 1075.65 899.139 1075.65 897.784C1075.65 896.676 1075.97 895.696 1076.59 894.844C1077.22 893.991 1078.07 893.322 1079.16 892.837C1080.25 892.351 1081.48 892.108 1082.86 892.108C1084.81 892.108 1086.33 892.534 1087.44 893.386C1088.56 894.239 1089.35 895.364 1089.82 896.761ZM1102.95 912.409C1101.06 912.409 1099.43 911.991 1098.06 911.156C1096.69 910.312 1095.64 909.136 1094.9 907.628C1094.16 906.111 1093.8 904.347 1093.8 902.335C1093.8 900.324 1094.16 898.551 1094.9 897.017C1095.64 895.474 1096.67 894.273 1097.99 893.412C1099.32 892.543 1100.87 892.108 1102.64 892.108C1103.67 892.108 1104.68 892.278 1105.67 892.619C1106.67 892.96 1107.58 893.514 1108.4 894.281C1109.22 895.04 1109.87 896.045 1110.35 897.298C1110.84 898.551 1111.08 900.094 1111.08 901.926V903.205H1095.95V900.597H1108.01C1108.01 899.489 1107.79 898.5 1107.35 897.631C1106.91 896.761 1106.29 896.075 1105.48 895.572C1104.68 895.07 1103.74 894.818 1102.64 894.818C1101.44 894.818 1100.4 895.116 1099.53 895.713C1098.66 896.301 1097.99 897.068 1097.52 898.014C1097.05 898.96 1096.81 899.974 1096.81 901.057V902.795C1096.81 904.278 1097.07 905.536 1097.58 906.567C1098.1 907.589 1098.82 908.369 1099.74 908.906C1100.66 909.435 1101.73 909.699 1102.95 909.699C1103.74 909.699 1104.46 909.588 1105.1 909.366C1105.75 909.136 1106.31 908.795 1106.77 908.344C1107.24 907.884 1107.6 907.312 1107.86 906.631L1110.78 907.449C1110.47 908.438 1109.95 909.307 1109.23 910.057C1108.5 910.798 1107.61 911.378 1106.54 911.795C1105.48 912.205 1104.28 912.409 1102.95 912.409ZM1133.77 912.409C1132 912.409 1130.45 911.987 1129.11 911.143C1127.78 910.3 1126.74 909.119 1125.99 907.602C1125.25 906.085 1124.88 904.312 1124.88 902.284C1124.88 900.239 1125.25 898.453 1125.99 896.928C1126.74 895.402 1127.78 894.217 1129.11 893.374C1130.45 892.53 1132 892.108 1133.77 892.108C1135.55 892.108 1137.1 892.53 1138.43 893.374C1139.77 894.217 1140.81 895.402 1141.55 896.928C1142.3 898.453 1142.67 900.239 1142.67 902.284C1142.67 904.312 1142.3 906.085 1141.55 907.602C1140.81 909.119 1139.77 910.3 1138.43 911.143C1137.1 911.987 1135.55 912.409 1133.77 912.409ZM1133.77 909.699C1135.12 909.699 1136.23 909.354 1137.1 908.663C1137.97 907.973 1138.61 907.065 1139.03 905.94C1139.45 904.815 1139.65 903.597 1139.65 902.284C1139.65 900.972 1139.45 899.749 1139.03 898.615C1138.61 897.482 1137.97 896.565 1137.1 895.866C1136.23 895.168 1135.12 894.818 1133.77 894.818C1132.43 894.818 1131.32 895.168 1130.45 895.866C1129.58 896.565 1128.94 897.482 1128.52 898.615C1128.1 899.749 1127.89 900.972 1127.89 902.284C1127.89 903.597 1128.1 904.815 1128.52 905.94C1128.94 907.065 1129.58 907.973 1130.45 908.663C1131.32 909.354 1132.43 909.699 1133.77 909.699ZM1156.02 892.364V894.92H1145.44V892.364H1156.02ZM1148.61 912V889.653C1148.61 888.528 1148.87 887.591 1149.4 886.841C1149.93 886.091 1150.61 885.528 1151.46 885.153C1152.3 884.778 1153.19 884.591 1154.13 884.591C1154.87 884.591 1155.48 884.651 1155.94 884.77C1156.41 884.889 1156.76 885 1156.99 885.102L1156.12 887.71C1155.97 887.659 1155.76 887.595 1155.48 887.518C1155.22 887.442 1154.87 887.403 1154.44 887.403C1153.44 887.403 1152.72 887.655 1152.28 888.158C1151.84 888.661 1151.62 889.398 1151.62 890.369V912H1148.61ZM1187.97 885.818H1191.14V903.153C1191.14 904.943 1190.71 906.541 1189.87 907.947C1189.04 909.345 1187.85 910.449 1186.33 911.259C1184.8 912.06 1183.01 912.46 1180.96 912.46C1178.91 912.46 1177.12 912.06 1175.59 911.259C1174.06 910.449 1172.88 909.345 1172.04 907.947C1171.2 906.541 1170.78 904.943 1170.78 903.153V885.818H1173.95V902.898C1173.95 904.176 1174.24 905.314 1174.8 906.311C1175.36 907.3 1176.16 908.08 1177.2 908.651C1178.25 909.213 1179.5 909.494 1180.96 909.494C1182.42 909.494 1183.67 909.213 1184.72 908.651C1185.77 908.08 1186.57 907.3 1187.12 906.311C1187.68 905.314 1187.97 904.176 1187.97 902.898V885.818ZM1210.97 896.761L1208.26 897.528C1208.09 897.077 1207.84 896.638 1207.5 896.212C1207.18 895.777 1206.74 895.419 1206.17 895.138C1205.61 894.857 1204.89 894.716 1204.01 894.716C1202.81 894.716 1201.81 894.993 1201.01 895.547C1200.22 896.092 1199.82 896.787 1199.82 897.631C1199.82 898.381 1200.09 898.973 1200.64 899.408C1201.18 899.842 1202.04 900.205 1203.19 900.494L1206.11 901.21C1207.87 901.636 1209.17 902.288 1210.03 903.166C1210.89 904.036 1211.33 905.156 1211.33 906.528C1211.33 907.653 1211 908.659 1210.35 909.545C1209.71 910.432 1208.82 911.131 1207.67 911.642C1206.52 912.153 1205.18 912.409 1203.65 912.409C1201.65 912.409 1199.99 911.974 1198.68 911.105C1197.37 910.236 1196.54 908.966 1196.19 907.295L1199.05 906.58C1199.33 907.636 1199.84 908.429 1200.6 908.957C1201.37 909.486 1202.37 909.75 1203.6 909.75C1205.01 909.75 1206.13 909.452 1206.95 908.855C1207.79 908.25 1208.21 907.526 1208.21 906.682C1208.21 906 1207.97 905.429 1207.49 904.969C1207.01 904.5 1206.28 904.151 1205.29 903.92L1202.02 903.153C1200.22 902.727 1198.9 902.067 1198.06 901.172C1197.22 900.268 1196.8 899.139 1196.8 897.784C1196.8 896.676 1197.11 895.696 1197.74 894.844C1198.37 893.991 1199.22 893.322 1200.31 892.837C1201.4 892.351 1202.63 892.108 1204.01 892.108C1205.96 892.108 1207.48 892.534 1208.59 893.386C1209.71 894.239 1210.5 895.364 1210.97 896.761ZM1224.1 912.409C1222.21 912.409 1220.58 911.991 1219.2 911.156C1217.84 910.312 1216.79 909.136 1216.05 907.628C1215.31 906.111 1214.95 904.347 1214.95 902.335C1214.95 900.324 1215.31 898.551 1216.05 897.017C1216.79 895.474 1217.82 894.273 1219.14 893.412C1220.47 892.543 1222.02 892.108 1223.79 892.108C1224.82 892.108 1225.83 892.278 1226.82 892.619C1227.82 892.96 1228.73 893.514 1229.55 894.281C1230.36 895.04 1231.02 896.045 1231.5 897.298C1231.99 898.551 1232.23 900.094 1232.23 901.926V903.205H1217.09V900.597H1229.16C1229.16 899.489 1228.94 898.5 1228.5 897.631C1228.06 896.761 1227.44 896.075 1226.63 895.572C1225.83 895.07 1224.88 894.818 1223.79 894.818C1222.59 894.818 1221.55 895.116 1220.67 895.713C1219.8 896.301 1219.14 897.068 1218.67 898.014C1218.2 898.96 1217.96 899.974 1217.96 901.057V902.795C1217.96 904.278 1218.22 905.536 1218.73 906.567C1219.25 907.589 1219.97 908.369 1220.89 908.906C1221.81 909.435 1222.88 909.699 1224.1 909.699C1224.89 909.699 1225.61 909.588 1226.25 909.366C1226.9 909.136 1227.45 908.795 1227.92 908.344C1228.39 907.884 1228.75 907.312 1229.01 906.631L1231.92 907.449C1231.62 908.438 1231.1 909.307 1230.38 910.057C1229.65 910.798 1228.76 911.378 1227.69 911.795C1226.63 912.205 1225.43 912.409 1224.1 912.409ZM1251.34 877.381V920.438H1248.79V877.381H1251.34ZM1269.26 912V885.818H1284.96V888.631H1272.43V897.477H1283.78V900.29H1272.43V912H1269.26ZM1289.77 912V892.364H1292.68V895.33H1292.88C1293.24 894.358 1293.89 893.57 1294.83 892.964C1295.77 892.359 1296.82 892.057 1298 892.057C1298.22 892.057 1298.5 892.061 1298.83 892.07C1299.16 892.078 1299.41 892.091 1299.58 892.108V895.176C1299.48 895.151 1299.25 895.112 1298.88 895.061C1298.52 895.001 1298.14 894.972 1297.74 894.972C1296.79 894.972 1295.94 895.172 1295.19 895.572C1294.44 895.964 1293.86 896.51 1293.42 897.209C1293 897.899 1292.78 898.687 1292.78 899.574V912H1289.77ZM1310.8 912.409C1308.9 912.409 1307.27 911.991 1305.9 911.156C1304.54 910.312 1303.48 909.136 1302.74 907.628C1302.01 906.111 1301.64 904.347 1301.64 902.335C1301.64 900.324 1302.01 898.551 1302.74 897.017C1303.48 895.474 1304.51 894.273 1305.83 893.412C1307.16 892.543 1308.72 892.108 1310.49 892.108C1311.51 892.108 1312.52 892.278 1313.52 892.619C1314.52 892.96 1315.42 893.514 1316.24 894.281C1317.06 895.04 1317.71 896.045 1318.2 897.298C1318.68 898.551 1318.93 900.094 1318.93 901.926V903.205H1303.79V900.597H1315.86C1315.86 899.489 1315.64 898.5 1315.19 897.631C1314.76 896.761 1314.14 896.075 1313.33 895.572C1312.53 895.07 1311.58 894.818 1310.49 894.818C1309.29 894.818 1308.25 895.116 1307.37 895.713C1306.5 896.301 1305.83 897.068 1305.36 898.014C1304.89 898.96 1304.66 899.974 1304.66 901.057V902.795C1304.66 904.278 1304.91 905.536 1305.43 906.567C1305.95 907.589 1306.67 908.369 1307.59 908.906C1308.51 909.435 1309.58 909.699 1310.8 909.699C1311.59 909.699 1312.3 909.588 1312.94 909.366C1313.59 909.136 1314.15 908.795 1314.62 908.344C1315.09 907.884 1315.45 907.312 1315.7 906.631L1318.62 907.449C1318.31 908.438 1317.8 909.307 1317.07 910.057C1316.35 910.798 1315.45 911.378 1314.39 911.795C1313.32 912.205 1312.12 912.409 1310.8 912.409ZM1331.75 912.409C1329.86 912.409 1328.22 911.991 1326.85 911.156C1325.49 910.312 1324.44 909.136 1323.69 907.628C1322.96 906.111 1322.59 904.347 1322.59 902.335C1322.59 900.324 1322.96 898.551 1323.69 897.017C1324.44 895.474 1325.47 894.273 1326.79 893.412C1328.12 892.543 1329.67 892.108 1331.44 892.108C1332.46 892.108 1333.47 892.278 1334.47 892.619C1335.47 892.96 1336.38 893.514 1337.19 894.281C1338.01 895.04 1338.66 896.045 1339.15 897.298C1339.64 898.551 1339.88 900.094 1339.88 901.926V903.205H1324.74V900.597H1336.81C1336.81 899.489 1336.59 898.5 1336.15 897.631C1335.71 896.761 1335.09 896.075 1334.28 895.572C1333.48 895.07 1332.53 894.818 1331.44 894.818C1330.24 894.818 1329.2 895.116 1328.32 895.713C1327.45 896.301 1326.78 897.068 1326.31 898.014C1325.85 898.96 1325.61 899.974 1325.61 901.057V902.795C1325.61 904.278 1325.87 905.536 1326.38 906.567C1326.9 907.589 1327.62 908.369 1328.54 908.906C1329.46 909.435 1330.53 909.699 1331.75 909.699C1332.54 909.699 1333.26 909.588 1333.9 909.366C1334.54 909.136 1335.1 908.795 1335.57 908.344C1336.04 907.884 1336.4 907.312 1336.66 906.631L1339.57 907.449C1339.27 908.438 1338.75 909.307 1338.03 910.057C1337.3 910.798 1336.41 911.378 1335.34 911.795C1334.28 912.205 1333.08 912.409 1331.75 912.409Z" fill="#AEAEAE"/>
<line x1="168" y1="319.5" x2="1820" y2="319.5" stroke="#DBDBDB" stroke-width="7"/>
<defs>
<filter id="filter0_d_0_1" x="0" y="0" width="1965" height="1058" filterUnits="userSpaceOnUse" color-interpolation-filters="sRGB">
<feFlood flood-opacity="0" result="BackgroundImageFix"/>
<feColorMatrix in="SourceAlpha" type="matrix" values="0 0 0 0 0 0 0 0 0 0 0 0 0 0 0 0 0 0 127 0" result="hardAlpha"/>
<feMorphology radius="13" operator="dilate" in="SourceAlpha" result="effect1_dropShadow_0_1"/>
<feOffset dy="4"/>
<feGaussianBlur stdDeviation="15"/>
<feComposite in2="hardAlpha" operator="out"/>
<feColorMatrix type="matrix" values="0 0 0 0 0 0 0 0 0 0 0 0 0 0 0 0 0 0 0.25 0"/>
<feBlend mode="normal" in2="BackgroundImageFix" result="effect1_dropShadow_0_1"/>
<feBlend mode="normal" in="SourceGraphic" in2="effect1_dropShadow_0_1" result="shape"/>
</filter>
</defs>
</svg>
