<svg viewBox="0 0 2964 1454" fill="none" xmlns="http://www.w3.org/2000/svg">
<rect width="2964" height="1454" fill="#0F0F0F"/>
<path d="M598.405 187.01L333.819 284.122C272.842 306.334 223 376.585 223 439.605V823.405C223 884.358 264.358 964.424 314.73 1001.1L542.73 1166.91C617.493 1221.67 740.507 1221.67 815.27 1166.91L1043.27 1001.1C1093.64 964.424 1135 884.358 1135 823.405V439.605C1135 376.069 1085.16 305.817 1024.18 283.606L759.595 187.01C714.526 170.997 642.414 170.997 598.405 187.01Z" stroke="white" stroke-opacity="0.05" stroke-width="162" stroke-linecap="round" stroke-linejoin="round"/>
<path d="M539.408 686.966L615.463 770.591L818.592 547.244" stroke="#F5F5DC" stroke-opacity="0.05" stroke-width="162" stroke-linecap="round" stroke-linejoin="round"/>
<path d="M2186.09 603.705L1994.32 674.09C1950.12 690.188 1914 741.105 1914 786.781V1064.95C1914 1109.13 1943.98 1167.16 1980.48 1193.74L2145.73 1313.92C2199.92 1353.6 2289.08 1353.6 2343.27 1313.92L2508.52 1193.74C2545.02 1167.16 2575 1109.13 2575 1064.95V786.781C2575 740.731 2538.88 689.814 2494.68 673.715L2302.91 603.705C2270.25 592.098 2217.98 592.098 2186.09 603.705Z" stroke="white" stroke-opacity="0.05" stroke-width="71" stroke-linecap="round" stroke-linejoin="round"/>
<path d="M2143.33 966.063L2198.45 1026.67L2345.67 864.796" stroke="#F5F5DC" stroke-opacity="0.05" stroke-width="71" stroke-linecap="round" stroke-linejoin="round"/>
<path d="M1179.24 1380H1176.07C1175.88 1379.09 1175.55 1378.29 1175.08 1377.6C1174.62 1376.91 1174.06 1376.33 1173.4 1375.86C1172.74 1375.38 1172.01 1375.02 1171.21 1374.78C1170.41 1374.55 1169.57 1374.43 1168.7 1374.43C1167.12 1374.43 1165.68 1374.83 1164.4 1375.63C1163.12 1376.43 1162.1 1377.61 1161.34 1379.17C1160.59 1380.73 1160.22 1382.64 1160.22 1384.91C1160.22 1387.18 1160.59 1389.09 1161.34 1390.65C1162.1 1392.21 1163.12 1393.39 1164.4 1394.19C1165.68 1394.99 1167.12 1395.39 1168.7 1395.39C1169.57 1395.39 1170.41 1395.27 1171.21 1395.03C1172.01 1394.8 1172.74 1394.44 1173.4 1393.97C1174.06 1393.5 1174.62 1392.91 1175.08 1392.22C1175.55 1391.52 1175.88 1390.72 1176.07 1389.82H1179.24C1179 1391.16 1178.57 1392.35 1177.93 1393.41C1177.3 1394.47 1176.52 1395.37 1175.58 1396.11C1174.64 1396.84 1173.59 1397.4 1172.42 1397.78C1171.27 1398.17 1170.03 1398.36 1168.7 1398.36C1166.47 1398.36 1164.49 1397.81 1162.75 1396.72C1161.01 1395.63 1159.64 1394.08 1158.64 1392.07C1157.65 1390.06 1157.15 1387.67 1157.15 1384.91C1157.15 1382.15 1157.65 1379.76 1158.64 1377.75C1159.64 1375.74 1161.01 1374.19 1162.75 1373.1C1164.49 1372.01 1166.47 1371.46 1168.7 1371.46C1170.03 1371.46 1171.27 1371.65 1172.42 1372.04C1173.59 1372.42 1174.64 1372.98 1175.58 1373.72C1176.52 1374.46 1177.3 1375.35 1177.93 1376.41C1178.57 1377.46 1179 1378.65 1179.24 1380ZM1191.93 1398.41C1190.16 1398.41 1188.6 1397.99 1187.26 1397.14C1185.93 1396.3 1184.89 1395.12 1184.14 1393.6C1183.4 1392.09 1183.03 1390.31 1183.03 1388.28C1183.03 1386.24 1183.4 1384.45 1184.14 1382.93C1184.89 1381.4 1185.93 1380.22 1187.26 1379.37C1188.6 1378.53 1190.16 1378.11 1191.93 1378.11C1193.7 1378.11 1195.25 1378.53 1196.58 1379.37C1197.92 1380.22 1198.96 1381.4 1199.7 1382.93C1200.45 1384.45 1200.83 1386.24 1200.83 1388.28C1200.83 1390.31 1200.45 1392.09 1199.7 1393.6C1198.96 1395.12 1197.92 1396.3 1196.58 1397.14C1195.25 1397.99 1193.7 1398.41 1191.93 1398.41ZM1191.93 1395.7C1193.28 1395.7 1194.38 1395.35 1195.25 1394.66C1196.12 1393.97 1196.77 1393.07 1197.18 1391.94C1197.6 1390.82 1197.81 1389.6 1197.81 1388.28C1197.81 1386.97 1197.6 1385.75 1197.18 1384.62C1196.77 1383.48 1196.12 1382.57 1195.25 1381.87C1194.38 1381.17 1193.28 1380.82 1191.93 1380.82C1190.58 1380.82 1189.48 1381.17 1188.61 1381.87C1187.74 1382.57 1187.09 1383.48 1186.68 1384.62C1186.26 1385.75 1186.05 1386.97 1186.05 1388.28C1186.05 1389.6 1186.26 1390.82 1186.68 1391.94C1187.09 1393.07 1187.74 1393.97 1188.61 1394.66C1189.48 1395.35 1190.58 1395.7 1191.93 1395.7ZM1205.43 1405.36V1378.36H1208.35V1381.48H1208.71C1208.93 1381.14 1209.23 1380.71 1209.63 1380.18C1210.03 1379.64 1210.6 1379.16 1211.34 1378.75C1212.09 1378.32 1213.1 1378.11 1214.38 1378.11C1216.04 1378.11 1217.49 1378.52 1218.75 1379.35C1220.02 1380.17 1221 1381.35 1221.71 1382.86C1222.41 1384.38 1222.77 1386.17 1222.77 1388.23C1222.77 1390.31 1222.41 1392.12 1221.71 1393.64C1221 1395.16 1220.02 1396.33 1218.77 1397.17C1217.51 1398 1216.07 1398.41 1214.43 1398.41C1213.17 1398.41 1212.16 1398.2 1211.4 1397.78C1210.64 1397.36 1210.06 1396.87 1209.65 1396.34C1209.24 1395.79 1208.93 1395.34 1208.71 1394.98H1208.45V1405.36H1205.43ZM1208.4 1388.18C1208.4 1389.66 1208.62 1390.97 1209.05 1392.11C1209.49 1393.23 1210.12 1394.11 1210.96 1394.75C1211.79 1395.38 1212.81 1395.7 1214.02 1395.7C1215.29 1395.7 1216.34 1395.37 1217.18 1394.7C1218.03 1394.03 1218.67 1393.12 1219.1 1391.99C1219.53 1390.85 1219.75 1389.58 1219.75 1388.18C1219.75 1386.8 1219.54 1385.56 1219.11 1384.45C1218.69 1383.33 1218.06 1382.45 1217.21 1381.8C1216.36 1381.15 1215.3 1380.82 1214.02 1380.82C1212.8 1380.82 1211.77 1381.13 1210.93 1381.75C1210.1 1382.37 1209.46 1383.23 1209.04 1384.33C1208.61 1385.43 1208.4 1386.72 1208.4 1388.18ZM1228.61 1405.36C1228.1 1405.36 1227.64 1405.32 1227.24 1405.24C1226.84 1405.16 1226.57 1405.08 1226.41 1405.01L1227.18 1402.35C1227.91 1402.53 1228.56 1402.6 1229.12 1402.55C1229.68 1402.5 1230.18 1402.25 1230.62 1401.8C1231.06 1401.35 1231.47 1400.63 1231.83 1399.64L1232.39 1398.1L1225.13 1378.36H1228.41L1233.83 1394.01H1234.03L1239.45 1378.36H1242.72L1234.39 1400.86C1234.01 1401.88 1233.55 1402.72 1233 1403.38C1232.44 1404.06 1231.8 1404.55 1231.07 1404.88C1230.34 1405.2 1229.52 1405.36 1228.61 1405.36ZM1246.71 1398V1378.36H1249.62V1381.33H1249.83C1250.18 1380.36 1250.83 1379.57 1251.77 1378.96C1252.71 1378.36 1253.76 1378.06 1254.94 1378.06C1255.16 1378.06 1255.44 1378.06 1255.77 1378.07C1256.1 1378.08 1256.35 1378.09 1256.52 1378.11V1381.18C1256.42 1381.15 1256.19 1381.11 1255.82 1381.06C1255.46 1381 1255.08 1380.97 1254.68 1380.97C1253.73 1380.97 1252.88 1381.17 1252.13 1381.57C1251.39 1381.96 1250.8 1382.51 1250.36 1383.21C1249.94 1383.9 1249.72 1384.69 1249.72 1385.57V1398H1246.71ZM1260.1 1398V1378.36H1263.12V1398H1260.1ZM1261.64 1375.09C1261.05 1375.09 1260.54 1374.89 1260.11 1374.49C1259.7 1374.09 1259.49 1373.61 1259.49 1373.05C1259.49 1372.48 1259.7 1372 1260.11 1371.6C1260.54 1371.2 1261.05 1371 1261.64 1371C1262.22 1371 1262.73 1371.2 1263.14 1371.6C1263.57 1372 1263.78 1372.48 1263.78 1373.05C1263.78 1373.61 1263.57 1374.09 1263.14 1374.49C1262.73 1374.89 1262.22 1375.09 1261.64 1375.09ZM1276.57 1405.77C1275.11 1405.77 1273.86 1405.59 1272.81 1405.21C1271.76 1404.84 1270.89 1404.36 1270.19 1403.75C1269.5 1403.16 1268.95 1402.52 1268.54 1401.84L1270.95 1400.15C1271.22 1400.51 1271.56 1400.91 1271.98 1401.38C1272.4 1401.84 1272.97 1402.25 1273.69 1402.59C1274.43 1402.94 1275.39 1403.11 1276.57 1403.11C1278.16 1403.11 1279.46 1402.73 1280.5 1401.96C1281.53 1401.2 1282.04 1399.99 1282.04 1398.36V1394.37H1281.79C1281.56 1394.73 1281.25 1395.17 1280.84 1395.7C1280.44 1396.22 1279.86 1396.68 1279.1 1397.09C1278.35 1397.49 1277.34 1397.69 1276.06 1397.69C1274.47 1397.69 1273.05 1397.32 1271.79 1396.57C1270.54 1395.82 1269.54 1394.73 1268.81 1393.3C1268.09 1391.86 1267.72 1390.12 1267.72 1388.08C1267.72 1386.07 1268.08 1384.32 1268.78 1382.83C1269.49 1381.33 1270.48 1380.17 1271.74 1379.35C1273 1378.52 1274.46 1378.11 1276.11 1378.11C1277.39 1378.11 1278.4 1378.32 1279.15 1378.75C1279.91 1379.16 1280.49 1379.64 1280.89 1380.18C1281.3 1380.71 1281.62 1381.14 1281.84 1381.48H1282.14V1378.36H1285.06V1398.56C1285.06 1400.25 1284.68 1401.62 1283.91 1402.68C1283.15 1403.74 1282.13 1404.52 1280.84 1405.02C1279.56 1405.52 1278.14 1405.77 1276.57 1405.77ZM1276.47 1394.98C1277.68 1394.98 1278.7 1394.71 1279.54 1394.15C1280.37 1393.6 1281.01 1392.8 1281.44 1391.76C1281.88 1390.72 1282.09 1389.48 1282.09 1388.03C1282.09 1386.61 1281.88 1385.37 1281.45 1384.28C1281.03 1383.2 1280.4 1382.35 1279.56 1381.74C1278.73 1381.12 1277.7 1380.82 1276.47 1380.82C1275.19 1380.82 1274.12 1381.14 1273.27 1381.79C1272.43 1382.44 1271.79 1383.31 1271.37 1384.4C1270.95 1385.49 1270.74 1386.7 1270.74 1388.03C1270.74 1389.39 1270.95 1390.6 1271.38 1391.65C1271.81 1392.69 1272.45 1393.5 1273.3 1394.1C1274.15 1394.69 1275.21 1394.98 1276.47 1394.98ZM1293.6 1386.19V1398H1290.58V1371.82H1293.6V1381.43H1293.85C1294.31 1380.42 1295 1379.61 1295.93 1379.02C1296.85 1378.41 1298.09 1378.11 1299.63 1378.11C1300.97 1378.11 1302.14 1378.38 1303.15 1378.91C1304.15 1379.44 1304.93 1380.26 1305.49 1381.36C1306.05 1382.45 1306.33 1383.84 1306.33 1385.52V1398H1303.31V1385.73C1303.31 1384.17 1302.91 1382.96 1302.1 1382.11C1301.3 1381.25 1300.19 1380.82 1298.76 1380.82C1297.77 1380.82 1296.89 1381.03 1296.1 1381.44C1295.33 1381.86 1294.72 1382.47 1294.26 1383.27C1293.82 1384.07 1293.6 1385.05 1293.6 1386.19ZM1320.39 1378.36V1380.92H1310.21V1378.36H1320.39ZM1313.18 1373.66H1316.2V1392.38C1316.2 1393.23 1316.32 1393.87 1316.57 1394.29C1316.82 1394.71 1317.15 1394.99 1317.54 1395.14C1317.94 1395.27 1318.36 1395.34 1318.81 1395.34C1319.14 1395.34 1319.41 1395.32 1319.62 1395.29C1319.84 1395.25 1320.01 1395.21 1320.14 1395.19L1320.75 1397.9C1320.54 1397.97 1320.26 1398.05 1319.89 1398.13C1319.53 1398.21 1319.06 1398.26 1318.5 1398.26C1317.65 1398.26 1316.81 1398.07 1315.99 1397.71C1315.18 1397.34 1314.51 1396.78 1313.97 1396.03C1313.44 1395.28 1313.18 1394.34 1313.18 1393.19V1373.66ZM1338.49 1382.76L1335.78 1383.53C1335.61 1383.08 1335.35 1382.64 1335.02 1382.21C1334.7 1381.78 1334.26 1381.42 1333.69 1381.14C1333.13 1380.86 1332.41 1380.72 1331.53 1380.72C1330.33 1380.72 1329.33 1380.99 1328.53 1381.55C1327.74 1382.09 1327.34 1382.79 1327.34 1383.63C1327.34 1384.38 1327.61 1384.97 1328.16 1385.41C1328.7 1385.84 1329.56 1386.2 1330.71 1386.49L1333.63 1387.21C1335.38 1387.64 1336.69 1388.29 1337.55 1389.17C1338.41 1390.04 1338.84 1391.16 1338.84 1392.53C1338.84 1393.65 1338.52 1394.66 1337.87 1395.55C1337.23 1396.43 1336.34 1397.13 1335.19 1397.64C1334.04 1398.15 1332.7 1398.41 1331.17 1398.41C1329.17 1398.41 1327.51 1397.97 1326.2 1397.11C1324.89 1396.24 1324.06 1394.97 1323.71 1393.3L1326.57 1392.58C1326.84 1393.64 1327.36 1394.43 1328.12 1394.96C1328.89 1395.49 1329.89 1395.75 1331.12 1395.75C1332.53 1395.75 1333.65 1395.45 1334.47 1394.86C1335.31 1394.25 1335.73 1393.53 1335.73 1392.68C1335.73 1392 1335.49 1391.43 1335.01 1390.97C1334.53 1390.5 1333.8 1390.15 1332.81 1389.92L1329.54 1389.15C1327.74 1388.73 1326.42 1388.07 1325.57 1387.17C1324.74 1386.27 1324.32 1385.14 1324.32 1383.78C1324.32 1382.68 1324.63 1381.7 1325.26 1380.84C1325.89 1379.99 1326.74 1379.32 1327.82 1378.84C1328.92 1378.35 1330.15 1378.11 1331.53 1378.11C1333.48 1378.11 1335 1378.53 1336.11 1379.39C1337.23 1380.24 1338.02 1381.36 1338.49 1382.76ZM1353.92 1398V1371.82H1362.77C1364.81 1371.82 1366.49 1372.17 1367.8 1372.87C1369.12 1373.56 1370.09 1374.51 1370.72 1375.72C1371.35 1376.93 1371.66 1378.3 1371.66 1379.85C1371.66 1381.39 1371.35 1382.76 1370.72 1383.95C1370.09 1385.14 1369.12 1386.08 1367.82 1386.76C1366.51 1387.44 1364.85 1387.77 1362.82 1387.77H1355.66V1384.91H1362.72C1364.11 1384.91 1365.24 1384.7 1366.09 1384.3C1366.95 1383.89 1367.57 1383.31 1367.96 1382.56C1368.35 1381.8 1368.55 1380.89 1368.55 1379.85C1368.55 1378.8 1368.35 1377.88 1367.96 1377.1C1367.57 1376.31 1366.94 1375.71 1366.08 1375.28C1365.22 1374.85 1364.08 1374.63 1362.66 1374.63H1357.09V1398H1353.92ZM1366.24 1386.24L1372.69 1398H1369.01L1362.66 1386.24H1366.24ZM1384.56 1398.41C1382.67 1398.41 1381.04 1397.99 1379.66 1397.16C1378.3 1396.31 1377.25 1395.14 1376.51 1393.63C1375.77 1392.11 1375.41 1390.35 1375.41 1388.34C1375.41 1386.32 1375.77 1384.55 1376.51 1383.02C1377.25 1381.47 1378.28 1380.27 1379.6 1379.41C1380.93 1378.54 1382.48 1378.11 1384.25 1378.11C1385.28 1378.11 1386.29 1378.28 1387.28 1378.62C1388.28 1378.96 1389.19 1379.51 1390.01 1380.28C1390.82 1381.04 1391.48 1382.05 1391.96 1383.3C1392.45 1384.55 1392.69 1386.09 1392.69 1387.93V1389.2H1377.56V1386.6H1389.62C1389.62 1385.49 1389.4 1384.5 1388.96 1383.63C1388.52 1382.76 1387.9 1382.08 1387.09 1381.57C1386.29 1381.07 1385.34 1380.82 1384.25 1380.82C1383.05 1380.82 1382.01 1381.12 1381.13 1381.71C1380.27 1382.3 1379.6 1383.07 1379.13 1384.01C1378.66 1384.96 1378.42 1385.97 1378.42 1387.06V1388.8C1378.42 1390.28 1378.68 1391.54 1379.19 1392.57C1379.71 1393.59 1380.43 1394.37 1381.35 1394.91C1382.27 1395.43 1383.34 1395.7 1384.56 1395.7C1385.35 1395.7 1386.07 1395.59 1386.71 1395.37C1387.36 1395.14 1387.91 1394.8 1388.38 1394.34C1388.85 1393.88 1389.21 1393.31 1389.47 1392.63L1392.38 1393.45C1392.08 1394.44 1391.56 1395.31 1390.84 1396.06C1390.11 1396.8 1389.22 1397.38 1388.15 1397.8C1387.09 1398.2 1385.89 1398.41 1384.56 1398.41ZM1411.19 1382.76L1408.48 1383.53C1408.31 1383.08 1408.06 1382.64 1407.73 1382.21C1407.4 1381.78 1406.96 1381.42 1406.4 1381.14C1405.83 1380.86 1405.11 1380.72 1404.24 1380.72C1403.03 1380.72 1402.03 1380.99 1401.23 1381.55C1400.44 1382.09 1400.04 1382.79 1400.04 1383.63C1400.04 1384.38 1400.31 1384.97 1400.86 1385.41C1401.41 1385.84 1402.26 1386.2 1403.42 1386.49L1406.33 1387.21C1408.09 1387.64 1409.4 1388.29 1410.26 1389.17C1411.12 1390.04 1411.55 1391.16 1411.55 1392.53C1411.55 1393.65 1411.22 1394.66 1410.58 1395.55C1409.94 1396.43 1409.04 1397.13 1407.89 1397.64C1406.74 1398.15 1405.4 1398.41 1403.88 1398.41C1401.87 1398.41 1400.22 1397.97 1398.9 1397.11C1397.59 1396.24 1396.76 1394.97 1396.41 1393.3L1399.28 1392.58C1399.55 1393.64 1400.06 1394.43 1400.82 1394.96C1401.59 1395.49 1402.59 1395.75 1403.83 1395.75C1405.23 1395.75 1406.35 1395.45 1407.18 1394.86C1408.01 1394.25 1408.43 1393.53 1408.43 1392.68C1408.43 1392 1408.19 1391.43 1407.71 1390.97C1407.24 1390.5 1406.5 1390.15 1405.51 1389.92L1402.24 1389.15C1400.44 1388.73 1399.12 1388.07 1398.28 1387.17C1397.44 1386.27 1397.03 1385.14 1397.03 1383.78C1397.03 1382.68 1397.34 1381.7 1397.96 1380.84C1398.59 1379.99 1399.45 1379.32 1400.53 1378.84C1401.62 1378.35 1402.85 1378.11 1404.24 1378.11C1406.18 1378.11 1407.7 1378.53 1408.81 1379.39C1409.93 1380.24 1410.72 1381.36 1411.19 1382.76ZM1424.32 1398.41C1422.43 1398.41 1420.8 1397.99 1419.43 1397.16C1418.06 1396.31 1417.01 1395.14 1416.27 1393.63C1415.54 1392.11 1415.17 1390.35 1415.17 1388.34C1415.17 1386.32 1415.54 1384.55 1416.27 1383.02C1417.01 1381.47 1418.04 1380.27 1419.36 1379.41C1420.69 1378.54 1422.24 1378.11 1424.02 1378.11C1425.04 1378.11 1426.05 1378.28 1427.05 1378.62C1428.04 1378.96 1428.95 1379.51 1429.77 1380.28C1430.59 1381.04 1431.24 1382.05 1431.72 1383.3C1432.21 1384.55 1432.45 1386.09 1432.45 1387.93V1389.2H1417.32V1386.6H1429.38C1429.38 1385.49 1429.16 1384.5 1428.72 1383.63C1428.29 1382.76 1427.66 1382.08 1426.85 1381.57C1426.05 1381.07 1425.11 1380.82 1424.02 1380.82C1422.81 1380.82 1421.77 1381.12 1420.9 1381.71C1420.03 1382.3 1419.36 1383.07 1418.89 1384.01C1418.42 1384.96 1418.19 1385.97 1418.19 1387.06V1388.8C1418.19 1390.28 1418.44 1391.54 1418.95 1392.57C1419.47 1393.59 1420.19 1394.37 1421.11 1394.91C1422.03 1395.43 1423.1 1395.7 1424.32 1395.7C1425.12 1395.7 1425.83 1395.59 1426.47 1395.37C1427.12 1395.14 1427.68 1394.8 1428.14 1394.34C1428.61 1393.88 1428.98 1393.31 1429.23 1392.63L1432.15 1393.45C1431.84 1394.44 1431.32 1395.31 1430.6 1396.06C1429.88 1396.8 1428.98 1397.38 1427.91 1397.8C1426.85 1398.2 1425.65 1398.41 1424.32 1398.41ZM1437.04 1398V1378.36H1439.96V1381.33H1440.16C1440.52 1380.36 1441.17 1379.57 1442.11 1378.96C1443.04 1378.36 1444.1 1378.06 1445.28 1378.06C1445.5 1378.06 1445.77 1378.06 1446.11 1378.07C1446.44 1378.08 1446.69 1378.09 1446.86 1378.11V1381.18C1446.76 1381.15 1446.52 1381.11 1446.16 1381.06C1445.8 1381 1445.42 1380.97 1445.02 1380.97C1444.07 1380.97 1443.21 1381.17 1442.46 1381.57C1441.72 1381.96 1441.13 1382.51 1440.7 1383.21C1440.27 1383.9 1440.06 1384.69 1440.06 1385.57V1398H1437.04ZM1467.09 1378.36L1459.83 1398H1456.76L1449.5 1378.36H1452.77L1458.19 1394.01H1458.4L1463.82 1378.36H1467.09ZM1478.6 1398.41C1476.71 1398.41 1475.08 1397.99 1473.71 1397.16C1472.34 1396.31 1471.29 1395.14 1470.55 1393.63C1469.82 1392.11 1469.45 1390.35 1469.45 1388.34C1469.45 1386.32 1469.82 1384.55 1470.55 1383.02C1471.29 1381.47 1472.32 1380.27 1473.64 1379.41C1474.97 1378.54 1476.52 1378.11 1478.3 1378.11C1479.32 1378.11 1480.33 1378.28 1481.33 1378.62C1482.32 1378.96 1483.23 1379.51 1484.05 1380.28C1484.87 1381.04 1485.52 1382.05 1486.01 1383.3C1486.49 1384.55 1486.73 1386.09 1486.73 1387.93V1389.2H1471.6V1386.6H1483.67C1483.67 1385.49 1483.44 1384.5 1483 1383.63C1482.57 1382.76 1481.94 1382.08 1481.13 1381.57C1480.33 1381.07 1479.39 1380.82 1478.3 1380.82C1477.1 1380.82 1476.06 1381.12 1475.18 1381.71C1474.31 1382.3 1473.64 1383.07 1473.17 1384.01C1472.7 1384.96 1472.47 1385.97 1472.47 1387.06V1388.8C1472.47 1390.28 1472.72 1391.54 1473.23 1392.57C1473.75 1393.59 1474.47 1394.37 1475.39 1394.91C1476.32 1395.43 1477.38 1395.7 1478.6 1395.7C1479.4 1395.7 1480.11 1395.59 1480.75 1395.37C1481.4 1395.14 1481.96 1394.8 1482.43 1394.34C1482.89 1393.88 1483.26 1393.31 1483.51 1392.63L1486.43 1393.45C1486.12 1394.44 1485.61 1395.31 1484.88 1396.06C1484.16 1396.8 1483.26 1397.38 1482.2 1397.8C1481.13 1398.2 1479.93 1398.41 1478.6 1398.41ZM1498.74 1398.41C1497.1 1398.41 1495.66 1398 1494.4 1397.17C1493.15 1396.33 1492.17 1395.16 1491.46 1393.64C1490.76 1392.12 1490.4 1390.31 1490.4 1388.23C1490.4 1386.17 1490.76 1384.38 1491.46 1382.86C1492.17 1381.35 1493.16 1380.17 1494.42 1379.35C1495.68 1378.52 1497.14 1378.11 1498.79 1378.11C1500.07 1378.11 1501.08 1378.32 1501.82 1378.75C1502.57 1379.16 1503.14 1379.64 1503.53 1380.18C1503.93 1380.71 1504.24 1381.14 1504.47 1381.48H1504.72V1371.82H1507.74V1398H1504.82V1394.98H1504.47C1504.24 1395.34 1503.93 1395.79 1503.52 1396.34C1503.11 1396.87 1502.53 1397.36 1501.77 1397.78C1501.01 1398.2 1500 1398.41 1498.74 1398.41ZM1499.15 1395.7C1500.36 1395.7 1501.38 1395.38 1502.22 1394.75C1503.05 1394.11 1503.69 1393.23 1504.12 1392.11C1504.56 1390.97 1504.77 1389.66 1504.77 1388.18C1504.77 1386.72 1504.56 1385.43 1504.13 1384.33C1503.71 1383.23 1503.08 1382.37 1502.24 1381.75C1501.41 1381.13 1500.38 1380.82 1499.15 1380.82C1497.87 1380.82 1496.8 1381.15 1495.95 1381.8C1495.11 1382.45 1494.47 1383.33 1494.05 1384.45C1493.63 1385.56 1493.42 1386.8 1493.42 1388.18C1493.42 1389.58 1493.63 1390.85 1494.06 1391.99C1494.49 1393.12 1495.13 1394.03 1495.98 1394.7C1496.83 1395.37 1497.89 1395.7 1499.15 1395.7ZM1535.06 1383.5V1386.32H1523.6V1383.5H1535.06ZM1550.9 1398V1371.82H1566.7V1374.63H1554.07V1383.48H1565.88V1386.29H1554.07V1395.19H1566.91V1398H1550.9ZM1577.79 1398.46C1576.54 1398.46 1575.41 1398.23 1574.4 1397.76C1573.38 1397.28 1572.58 1396.59 1571.98 1395.7C1571.39 1394.8 1571.09 1393.7 1571.09 1392.43C1571.09 1391.3 1571.31 1390.39 1571.75 1389.69C1572.19 1388.98 1572.79 1388.43 1573.53 1388.03C1574.27 1387.63 1575.09 1387.33 1575.98 1387.13C1576.89 1386.93 1577.79 1386.77 1578.71 1386.65C1579.9 1386.49 1580.87 1386.38 1581.61 1386.3C1582.36 1386.22 1582.9 1386.08 1583.24 1385.88C1583.59 1385.68 1583.77 1385.34 1583.77 1384.86V1384.76C1583.77 1383.49 1583.42 1382.51 1582.73 1381.82C1582.05 1381.12 1581.02 1380.77 1579.63 1380.77C1578.19 1380.77 1577.06 1381.08 1576.24 1381.71C1575.42 1382.34 1574.85 1383.02 1574.51 1383.73L1571.65 1382.71C1572.16 1381.52 1572.84 1380.59 1573.69 1379.92C1574.56 1379.25 1575.49 1378.78 1576.51 1378.52C1577.53 1378.24 1578.54 1378.11 1579.52 1378.11C1580.16 1378.11 1580.88 1378.18 1581.7 1378.34C1582.52 1378.48 1583.32 1378.79 1584.09 1379.25C1584.86 1379.71 1585.51 1380.4 1586.02 1381.33C1586.53 1382.26 1586.79 1383.5 1586.79 1385.06V1398H1583.77V1395.34H1583.62C1583.41 1395.77 1583.07 1396.22 1582.59 1396.71C1582.12 1397.19 1581.48 1397.61 1580.69 1397.95C1579.9 1398.29 1578.93 1398.46 1577.79 1398.46ZM1578.25 1395.75C1579.44 1395.75 1580.44 1395.52 1581.26 1395.05C1582.09 1394.58 1582.71 1393.97 1583.13 1393.23C1583.56 1392.49 1583.77 1391.71 1583.77 1390.89V1388.13C1583.64 1388.28 1583.36 1388.42 1582.93 1388.55C1582.5 1388.67 1582 1388.78 1581.44 1388.87C1580.89 1388.96 1580.35 1389.03 1579.82 1389.1C1579.3 1389.16 1578.88 1389.21 1578.55 1389.26C1577.77 1389.36 1577.04 1389.52 1576.35 1389.75C1575.68 1389.98 1575.14 1390.31 1574.72 1390.76C1574.31 1391.21 1574.1 1391.81 1574.1 1392.58C1574.1 1393.63 1574.49 1394.42 1575.27 1394.96C1576.05 1395.49 1577.04 1395.75 1578.25 1395.75ZM1606.2 1382.76L1603.49 1383.53C1603.32 1383.08 1603.07 1382.64 1602.74 1382.21C1602.41 1381.78 1601.97 1381.42 1601.41 1381.14C1600.85 1380.86 1600.12 1380.72 1599.25 1380.72C1598.05 1380.72 1597.04 1380.99 1596.24 1381.55C1595.45 1382.09 1595.05 1382.79 1595.05 1383.63C1595.05 1384.38 1595.33 1384.97 1595.87 1385.41C1596.42 1385.84 1597.27 1386.2 1598.43 1386.49L1601.34 1387.21C1603.1 1387.64 1604.41 1388.29 1605.27 1389.17C1606.13 1390.04 1606.56 1391.16 1606.56 1392.53C1606.56 1393.65 1606.24 1394.66 1605.59 1395.55C1604.95 1396.43 1604.05 1397.13 1602.9 1397.64C1601.75 1398.15 1600.41 1398.41 1598.89 1398.41C1596.89 1398.41 1595.23 1397.97 1593.92 1397.11C1592.6 1396.24 1591.77 1394.97 1591.42 1393.3L1594.29 1392.58C1594.56 1393.64 1595.08 1394.43 1595.83 1394.96C1596.6 1395.49 1597.6 1395.75 1598.84 1395.75C1600.24 1395.75 1601.36 1395.45 1602.19 1394.86C1603.02 1394.25 1603.44 1393.53 1603.44 1392.68C1603.44 1392 1603.2 1391.43 1602.72 1390.97C1602.25 1390.5 1601.51 1390.15 1600.53 1389.92L1597.25 1389.15C1595.45 1388.73 1594.13 1388.07 1593.29 1387.17C1592.45 1386.27 1592.04 1385.14 1592.04 1383.78C1592.04 1382.68 1592.35 1381.7 1592.97 1380.84C1593.6 1379.99 1594.46 1379.32 1595.54 1378.84C1596.63 1378.35 1597.87 1378.11 1599.25 1378.11C1601.19 1378.11 1602.72 1378.53 1603.82 1379.39C1604.94 1380.24 1605.73 1381.36 1606.2 1382.76ZM1613.04 1405.36C1612.53 1405.36 1612.08 1405.32 1611.68 1405.24C1611.28 1405.16 1611 1405.08 1610.85 1405.01L1611.61 1402.35C1612.35 1402.53 1612.99 1402.6 1613.56 1402.55C1614.12 1402.5 1614.62 1402.25 1615.05 1401.8C1615.49 1401.35 1615.9 1400.63 1616.27 1399.64L1616.83 1398.1L1609.57 1378.36H1612.84L1618.26 1394.01H1618.46L1623.89 1378.36H1627.16L1618.82 1400.86C1618.45 1401.88 1617.98 1402.72 1617.43 1403.38C1616.88 1404.06 1616.23 1404.55 1615.5 1404.88C1614.77 1405.2 1613.96 1405.36 1613.04 1405.36ZM1630.16 1398H1626.84L1636.45 1371.82H1639.72L1649.34 1398H1646.01L1638.19 1375.96H1637.99L1630.16 1398ZM1631.39 1387.77H1644.79V1390.59H1631.39V1387.77ZM1660.98 1398.41C1659.14 1398.41 1657.56 1397.97 1656.23 1397.11C1654.9 1396.24 1653.88 1395.04 1653.16 1393.51C1652.44 1391.99 1652.09 1390.24 1652.09 1388.28C1652.09 1386.29 1652.45 1384.53 1653.19 1383C1653.93 1381.47 1654.96 1380.27 1656.28 1379.41C1657.61 1378.54 1659.16 1378.11 1660.93 1378.11C1662.31 1378.11 1663.56 1378.36 1664.67 1378.88C1665.77 1379.39 1666.68 1380.1 1667.39 1381.02C1668.1 1381.94 1668.54 1383.02 1668.71 1384.24H1665.69C1665.46 1383.35 1664.95 1382.56 1664.16 1381.87C1663.37 1381.17 1662.31 1380.82 1660.98 1380.82C1659.81 1380.82 1658.78 1381.12 1657.89 1381.74C1657.01 1382.34 1656.33 1383.2 1655.83 1384.31C1655.35 1385.41 1655.1 1386.7 1655.1 1388.18C1655.1 1389.7 1655.34 1391.02 1655.82 1392.14C1656.31 1393.27 1656.99 1394.14 1657.87 1394.77C1658.75 1395.39 1659.79 1395.7 1660.98 1395.7C1661.77 1395.7 1662.48 1395.56 1663.12 1395.29C1663.76 1395.02 1664.3 1394.62 1664.74 1394.11C1665.19 1393.6 1665.5 1392.99 1665.69 1392.27H1668.71C1668.54 1393.43 1668.11 1394.48 1667.44 1395.4C1666.78 1396.33 1665.89 1397.06 1664.79 1397.6C1663.7 1398.14 1662.43 1398.41 1660.98 1398.41ZM1681.09 1398.41C1679.25 1398.41 1677.67 1397.97 1676.34 1397.11C1675.01 1396.24 1673.99 1395.04 1673.27 1393.51C1672.55 1391.99 1672.2 1390.24 1672.2 1388.28C1672.2 1386.29 1672.56 1384.53 1673.3 1383C1674.04 1381.47 1675.07 1380.27 1676.39 1379.41C1677.72 1378.54 1679.27 1378.11 1681.04 1378.11C1682.42 1378.11 1683.67 1378.36 1684.78 1378.88C1685.88 1379.39 1686.79 1380.1 1687.5 1381.02C1688.21 1381.94 1688.65 1383.02 1688.82 1384.24H1685.8C1685.57 1383.35 1685.06 1382.56 1684.26 1381.87C1683.48 1381.17 1682.42 1380.82 1681.09 1380.82C1679.92 1380.82 1678.89 1381.12 1678 1381.74C1677.12 1382.34 1676.44 1383.2 1675.94 1384.31C1675.46 1385.41 1675.21 1386.7 1675.21 1388.18C1675.21 1389.7 1675.45 1391.02 1675.93 1392.14C1676.42 1393.27 1677.1 1394.14 1677.97 1394.77C1678.86 1395.39 1679.9 1395.7 1681.09 1395.7C1681.88 1395.7 1682.59 1395.56 1683.23 1395.29C1683.87 1395.02 1684.41 1394.62 1684.85 1394.11C1685.3 1393.6 1685.61 1392.99 1685.8 1392.27H1688.82C1688.65 1393.43 1688.22 1394.48 1687.55 1395.4C1686.89 1396.33 1686 1397.06 1684.9 1397.6C1683.81 1398.14 1682.54 1398.41 1681.09 1398.41ZM1701.46 1398.41C1699.57 1398.41 1697.94 1397.99 1696.56 1397.16C1695.2 1396.31 1694.15 1395.14 1693.41 1393.63C1692.67 1392.11 1692.31 1390.35 1692.31 1388.34C1692.31 1386.32 1692.67 1384.55 1693.41 1383.02C1694.15 1381.47 1695.18 1380.27 1696.5 1379.41C1697.83 1378.54 1699.38 1378.11 1701.15 1378.11C1702.18 1378.11 1703.19 1378.28 1704.18 1378.62C1705.18 1378.96 1706.09 1379.51 1706.91 1380.28C1707.72 1381.04 1708.38 1382.05 1708.86 1383.3C1709.35 1384.55 1709.59 1386.09 1709.59 1387.93V1389.2H1694.45V1386.6H1706.52C1706.52 1385.49 1706.3 1384.5 1705.86 1383.63C1705.42 1382.76 1704.8 1382.08 1703.99 1381.57C1703.19 1381.07 1702.24 1380.82 1701.15 1380.82C1699.95 1380.82 1698.91 1381.12 1698.03 1381.71C1697.16 1382.3 1696.49 1383.07 1696.03 1384.01C1695.56 1384.96 1695.32 1385.97 1695.32 1387.06V1388.8C1695.32 1390.28 1695.58 1391.54 1696.09 1392.57C1696.61 1393.59 1697.33 1394.37 1698.25 1394.91C1699.17 1395.43 1700.24 1395.7 1701.46 1395.7C1702.25 1395.7 1702.97 1395.59 1703.61 1395.37C1704.25 1395.14 1704.81 1394.8 1705.28 1394.34C1705.75 1393.88 1706.11 1393.31 1706.37 1392.63L1709.28 1393.45C1708.98 1394.44 1708.46 1395.31 1707.74 1396.06C1707.01 1396.8 1706.12 1397.38 1705.05 1397.8C1703.99 1398.2 1702.79 1398.41 1701.46 1398.41ZM1728.09 1382.76L1725.38 1383.53C1725.21 1383.08 1724.96 1382.64 1724.62 1382.21C1724.3 1381.78 1723.86 1381.42 1723.29 1381.14C1722.73 1380.86 1722.01 1380.72 1721.13 1380.72C1719.93 1380.72 1718.93 1380.99 1718.13 1381.55C1717.34 1382.09 1716.94 1382.79 1716.94 1383.63C1716.94 1384.38 1717.21 1384.97 1717.76 1385.41C1718.3 1385.84 1719.16 1386.2 1720.32 1386.49L1723.23 1387.21C1724.99 1387.64 1726.29 1388.29 1727.16 1389.17C1728.02 1390.04 1728.45 1391.16 1728.45 1392.53C1728.45 1393.65 1728.12 1394.66 1727.47 1395.55C1726.84 1396.43 1725.94 1397.13 1724.79 1397.64C1723.64 1398.15 1722.3 1398.41 1720.78 1398.41C1718.77 1398.41 1717.12 1397.97 1715.8 1397.11C1714.49 1396.24 1713.66 1394.97 1713.31 1393.3L1716.17 1392.58C1716.45 1393.64 1716.96 1394.43 1717.72 1394.96C1718.49 1395.49 1719.49 1395.75 1720.72 1395.75C1722.13 1395.75 1723.25 1395.45 1724.07 1394.86C1724.91 1394.25 1725.33 1393.53 1725.33 1392.68C1725.33 1392 1725.09 1391.43 1724.61 1390.97C1724.13 1390.5 1723.4 1390.15 1722.41 1389.92L1719.14 1389.15C1717.34 1388.73 1716.02 1388.07 1715.18 1387.17C1714.34 1386.27 1713.92 1385.14 1713.92 1383.78C1713.92 1382.68 1714.23 1381.7 1714.86 1380.84C1715.49 1379.99 1716.34 1379.32 1717.43 1378.84C1718.52 1378.35 1719.75 1378.11 1721.13 1378.11C1723.08 1378.11 1724.6 1378.53 1725.71 1379.39C1726.83 1380.24 1727.62 1381.36 1728.09 1382.76ZM1746.9 1382.76L1744.19 1383.53C1744.02 1383.08 1743.76 1382.64 1743.43 1382.21C1743.11 1381.78 1742.67 1381.42 1742.1 1381.14C1741.54 1380.86 1740.82 1380.72 1739.94 1380.72C1738.74 1380.72 1737.74 1380.99 1736.94 1381.55C1736.15 1382.09 1735.75 1382.79 1735.75 1383.63C1735.75 1384.38 1736.02 1384.97 1736.57 1385.41C1737.11 1385.84 1737.97 1386.2 1739.12 1386.49L1742.04 1387.21C1743.79 1387.64 1745.1 1388.29 1745.96 1389.17C1746.82 1390.04 1747.25 1391.16 1747.25 1392.53C1747.25 1393.65 1746.93 1394.66 1746.28 1395.55C1745.64 1396.43 1744.75 1397.13 1743.6 1397.64C1742.45 1398.15 1741.11 1398.41 1739.58 1398.41C1737.58 1398.41 1735.92 1397.97 1734.61 1397.11C1733.3 1396.24 1732.47 1394.97 1732.12 1393.3L1734.98 1392.58C1735.25 1393.64 1735.77 1394.43 1736.53 1394.96C1737.3 1395.49 1738.3 1395.75 1739.53 1395.75C1740.94 1395.75 1742.06 1395.45 1742.88 1394.86C1743.72 1394.25 1744.14 1393.53 1744.14 1392.68C1744.14 1392 1743.9 1391.43 1743.42 1390.97C1742.94 1390.5 1742.21 1390.15 1741.22 1389.92L1737.95 1389.15C1736.15 1388.73 1734.83 1388.07 1733.99 1387.17C1733.15 1386.27 1732.73 1385.14 1732.73 1383.78C1732.73 1382.68 1733.04 1381.7 1733.67 1380.84C1734.3 1379.99 1735.15 1379.32 1736.24 1378.84C1737.33 1378.35 1738.56 1378.11 1739.94 1378.11C1741.89 1378.11 1743.41 1378.53 1744.52 1379.39C1745.64 1380.24 1746.43 1381.36 1746.9 1382.76ZM1748.1 1374.63V1371.82H1767.74V1374.63H1759.51V1398H1756.33V1374.63H1748.1ZM1772.63 1371.82H1776.42L1785.31 1393.55H1785.62L1794.52 1371.82H1798.3V1398H1795.34V1378.11H1795.08L1786.9 1398H1784.03L1775.85 1378.11H1775.6V1398H1772.63V1371.82Z" fill="#AEAEAE"/>
<path d="M1336.11 112.75H1326.16C1325.98 111.462 1325.61 110.318 1325.05 109.318C1324.48 108.303 1323.77 107.439 1322.89 106.727C1322.01 106.015 1320.99 105.47 1319.84 105.091C1318.7 104.712 1317.47 104.523 1316.14 104.523C1313.73 104.523 1311.63 105.121 1309.84 106.318C1308.05 107.5 1306.67 109.227 1305.68 111.5C1304.7 113.758 1304.2 116.5 1304.2 119.727C1304.2 123.045 1304.7 125.833 1305.68 128.091C1306.68 130.348 1308.08 132.053 1309.86 133.205C1311.65 134.356 1313.72 134.932 1316.07 134.932C1317.39 134.932 1318.61 134.758 1319.73 134.409C1320.86 134.061 1321.87 133.553 1322.75 132.886C1323.63 132.205 1324.36 131.379 1324.93 130.409C1325.52 129.439 1325.93 128.333 1326.16 127.091L1336.11 127.136C1335.86 129.273 1335.21 131.333 1334.18 133.318C1333.17 135.288 1331.8 137.053 1330.07 138.614C1328.36 140.159 1326.31 141.386 1323.93 142.295C1321.57 143.189 1318.89 143.636 1315.91 143.636C1311.76 143.636 1308.05 142.697 1304.77 140.818C1301.52 138.939 1298.94 136.22 1297.05 132.659C1295.17 129.098 1294.23 124.788 1294.23 119.727C1294.23 114.652 1295.18 110.333 1297.09 106.773C1299 103.212 1301.59 100.5 1304.86 98.6364C1308.14 96.7576 1311.82 95.8182 1315.91 95.8182C1318.61 95.8182 1321.11 96.197 1323.41 96.9545C1325.73 97.7121 1327.78 98.8182 1329.57 100.273C1331.36 101.712 1332.81 103.477 1333.93 105.568C1335.07 107.659 1335.8 110.053 1336.11 112.75ZM1358.76 143.682C1355.23 143.682 1352.18 142.932 1349.6 141.432C1347.04 139.917 1345.06 137.811 1343.67 135.114C1342.28 132.402 1341.58 129.258 1341.58 125.682C1341.58 122.076 1342.28 118.924 1343.67 116.227C1345.06 113.515 1347.04 111.409 1349.6 109.909C1352.18 108.394 1355.23 107.636 1358.76 107.636C1362.29 107.636 1365.34 108.394 1367.9 109.909C1370.47 111.409 1372.46 113.515 1373.85 116.227C1375.25 118.924 1375.94 122.076 1375.94 125.682C1375.94 129.258 1375.25 132.402 1373.85 135.114C1372.46 137.811 1370.47 139.917 1367.9 141.432C1365.34 142.932 1362.29 143.682 1358.76 143.682ZM1358.81 136.182C1360.41 136.182 1361.75 135.727 1362.83 134.818C1363.91 133.894 1364.72 132.636 1365.26 131.045C1365.82 129.455 1366.1 127.644 1366.1 125.614C1366.1 123.583 1365.82 121.773 1365.26 120.182C1364.72 118.591 1363.91 117.333 1362.83 116.409C1361.75 115.485 1360.41 115.023 1358.81 115.023C1357.19 115.023 1355.82 115.485 1354.72 116.409C1353.63 117.333 1352.8 118.591 1352.24 120.182C1351.69 121.773 1351.42 123.583 1351.42 125.614C1351.42 127.644 1351.69 129.455 1352.24 131.045C1352.8 132.636 1353.63 133.894 1354.72 134.818C1355.82 135.727 1357.19 136.182 1358.81 136.182ZM1391.92 122.818V143H1382.24V108.091H1391.47V114.25H1391.88C1392.65 112.22 1393.94 110.614 1395.76 109.432C1397.58 108.235 1399.78 107.636 1402.38 107.636C1404.8 107.636 1406.91 108.167 1408.72 109.227C1410.52 110.288 1411.92 111.803 1412.92 113.773C1413.92 115.727 1414.42 118.061 1414.42 120.773V143H1404.74V122.5C1404.75 120.364 1404.21 118.697 1403.1 117.5C1402 116.288 1400.47 115.682 1398.53 115.682C1397.23 115.682 1396.08 115.962 1395.08 116.523C1394.09 117.083 1393.32 117.902 1392.76 118.977C1392.22 120.038 1391.94 121.318 1391.92 122.818ZM1440.62 108.091V115.364H1419.6V108.091H1440.62ZM1424.37 99.7273H1434.05V132.273C1434.05 133.167 1434.19 133.864 1434.46 134.364C1434.73 134.848 1435.11 135.189 1435.6 135.386C1436.1 135.583 1436.67 135.682 1437.32 135.682C1437.78 135.682 1438.23 135.644 1438.69 135.568C1439.14 135.477 1439.49 135.409 1439.73 135.364L1441.26 142.568C1440.77 142.72 1440.09 142.894 1439.21 143.091C1438.33 143.303 1437.26 143.432 1436.01 143.477C1433.67 143.568 1431.63 143.258 1429.87 142.545C1428.13 141.833 1426.77 140.727 1425.8 139.227C1424.83 137.727 1424.35 135.833 1424.37 133.545V99.7273ZM1456.88 143.659C1454.65 143.659 1452.67 143.273 1450.93 142.5C1449.18 141.712 1447.8 140.553 1446.79 139.023C1445.79 137.477 1445.29 135.553 1445.29 133.25C1445.29 131.311 1445.65 129.682 1446.36 128.364C1447.07 127.045 1448.04 125.985 1449.27 125.182C1450.49 124.379 1451.89 123.773 1453.45 123.364C1455.02 122.955 1456.68 122.667 1458.4 122.5C1460.43 122.288 1462.07 122.091 1463.31 121.909C1464.55 121.712 1465.46 121.424 1466.02 121.045C1466.58 120.667 1466.86 120.106 1466.86 119.364V119.227C1466.86 117.788 1466.4 116.674 1465.49 115.886C1464.6 115.098 1463.33 114.705 1461.68 114.705C1459.93 114.705 1458.55 115.091 1457.52 115.864C1456.49 116.621 1455.8 117.576 1455.47 118.727L1446.52 118C1446.97 115.879 1447.87 114.045 1449.2 112.5C1450.53 110.939 1452.25 109.742 1454.36 108.909C1456.48 108.061 1458.93 107.636 1461.72 107.636C1463.66 107.636 1465.52 107.864 1467.29 108.318C1469.08 108.773 1470.66 109.477 1472.04 110.432C1473.43 111.386 1474.53 112.614 1475.34 114.114C1476.14 115.598 1476.54 117.379 1476.54 119.455V143H1467.36V138.159H1467.09C1466.52 139.25 1465.77 140.212 1464.84 141.045C1463.9 141.864 1462.77 142.508 1461.45 142.977C1460.13 143.432 1458.61 143.659 1456.88 143.659ZM1459.65 136.977C1461.08 136.977 1462.34 136.697 1463.43 136.136C1464.52 135.561 1465.37 134.788 1465.99 133.818C1466.62 132.848 1466.93 131.75 1466.93 130.523V126.818C1466.62 127.015 1466.21 127.197 1465.68 127.364C1465.16 127.515 1464.58 127.659 1463.93 127.795C1463.27 127.917 1462.62 128.03 1461.97 128.136C1461.32 128.227 1460.73 128.311 1460.2 128.386C1459.06 128.553 1458.07 128.818 1457.22 129.182C1456.37 129.545 1455.71 130.038 1455.24 130.659C1454.77 131.265 1454.54 132.023 1454.54 132.932C1454.54 134.25 1455.02 135.258 1455.97 135.955C1456.94 136.636 1458.17 136.977 1459.65 136.977ZM1499.82 143.682C1496.25 143.682 1493.17 142.924 1490.6 141.409C1488.04 139.879 1486.07 137.758 1484.69 135.045C1483.32 132.333 1482.64 129.212 1482.64 125.682C1482.64 122.106 1483.33 118.97 1484.71 116.273C1486.1 113.561 1488.08 111.447 1490.64 109.932C1493.2 108.402 1496.25 107.636 1499.78 107.636C1502.82 107.636 1505.49 108.189 1507.78 109.295C1510.07 110.402 1511.88 111.955 1513.21 113.955C1514.54 115.955 1515.28 118.303 1515.41 121H1506.28C1506.02 119.258 1505.34 117.856 1504.23 116.795C1503.14 115.72 1501.71 115.182 1499.94 115.182C1498.44 115.182 1497.13 115.591 1496.01 116.409C1494.9 117.212 1494.04 118.386 1493.41 119.932C1492.79 121.477 1492.48 123.348 1492.48 125.545C1492.48 127.773 1492.79 129.667 1493.39 131.227C1494.01 132.788 1494.88 133.977 1496.01 134.795C1497.13 135.614 1498.44 136.023 1499.94 136.023C1501.04 136.023 1502.04 135.795 1502.91 135.341C1503.81 134.886 1504.54 134.227 1505.12 133.364C1505.71 132.485 1506.1 131.432 1506.28 130.205H1515.41C1515.26 132.871 1514.54 135.22 1513.23 137.25C1511.95 139.265 1510.16 140.841 1507.89 141.977C1505.62 143.114 1502.93 143.682 1499.82 143.682ZM1540.18 108.091V115.364H1519.16V108.091H1540.18ZM1523.93 99.7273H1533.61V132.273C1533.61 133.167 1533.75 133.864 1534.02 134.364C1534.3 134.848 1534.67 135.189 1535.16 135.386C1535.66 135.583 1536.23 135.682 1536.89 135.682C1537.34 135.682 1537.8 135.644 1538.25 135.568C1538.7 135.477 1539.05 135.409 1539.3 135.364L1540.82 142.568C1540.33 142.72 1539.65 142.894 1538.77 143.091C1537.89 143.303 1536.83 143.432 1535.57 143.477C1533.23 143.568 1531.19 143.258 1529.43 142.545C1527.69 141.833 1526.33 140.727 1525.36 139.227C1524.39 137.727 1523.92 135.833 1523.93 133.545V99.7273ZM1590.23 96.4545H1600.07V126.682C1600.07 130.076 1599.26 133.045 1597.64 135.591C1596.04 138.136 1593.79 140.121 1590.89 141.545C1588 142.955 1584.63 143.659 1580.78 143.659C1576.91 143.659 1573.54 142.955 1570.64 141.545C1567.75 140.121 1565.5 138.136 1563.89 135.591C1562.29 133.045 1561.48 130.076 1561.48 126.682V96.4545H1571.32V125.841C1571.32 127.614 1571.71 129.189 1572.48 130.568C1573.27 131.947 1574.38 133.03 1575.8 133.818C1577.23 134.606 1578.88 135 1580.78 135C1582.69 135 1584.35 134.606 1585.76 133.818C1587.18 133.03 1588.28 131.947 1589.05 130.568C1589.84 129.189 1590.23 127.614 1590.23 125.841V96.4545ZM1637.03 118.045L1628.17 118.591C1628.02 117.833 1627.69 117.152 1627.19 116.545C1626.69 115.924 1626.03 115.432 1625.22 115.068C1624.41 114.689 1623.45 114.5 1622.33 114.5C1620.83 114.5 1619.56 114.818 1618.53 115.455C1617.5 116.076 1616.99 116.909 1616.99 117.955C1616.99 118.788 1617.32 119.492 1617.99 120.068C1618.66 120.644 1619.8 121.106 1621.42 121.455L1627.74 122.727C1631.13 123.424 1633.66 124.545 1635.33 126.091C1637 127.636 1637.83 129.667 1637.83 132.182C1637.83 134.47 1637.16 136.477 1635.81 138.205C1634.47 139.932 1632.64 141.28 1630.31 142.25C1627.99 143.205 1625.31 143.682 1622.28 143.682C1617.66 143.682 1613.98 142.72 1611.24 140.795C1608.51 138.856 1606.91 136.22 1606.44 132.886L1615.97 132.386C1616.25 133.795 1616.95 134.871 1618.06 135.614C1619.16 136.341 1620.58 136.705 1622.31 136.705C1624 136.705 1625.37 136.379 1626.4 135.727C1627.44 135.061 1627.97 134.205 1627.99 133.159C1627.97 132.28 1627.6 131.561 1626.88 131C1626.15 130.424 1625.03 129.985 1623.51 129.682L1617.47 128.477C1614.06 127.795 1611.52 126.614 1609.85 124.932C1608.2 123.25 1607.38 121.106 1607.38 118.5C1607.38 116.258 1607.98 114.326 1609.19 112.705C1610.42 111.083 1612.14 109.833 1614.35 108.955C1616.58 108.076 1619.19 107.636 1622.17 107.636C1626.58 107.636 1630.05 108.568 1632.58 110.432C1635.13 112.295 1636.61 114.833 1637.03 118.045Z" fill="white"/>
<line x1="128" y1="236.5" x2="2830" y2="236.5" stroke="#DBDBDB" stroke-width="7"/>
</svg>
