<svg viewBox="0 0 2964 141" fill="none" xmlns="http://www.w3.org/2000/svg">
<rect width="2964" height="141" fill="#151515"/>
<path d="M151.874 46.7638L135.048 52.9398C131.17 54.3524 128 58.8201 128 62.8279V87.2363C128 91.1127 130.63 96.2046 133.834 98.537L148.334 109.082C153.088 112.564 160.912 112.564 165.666 109.082L180.166 98.537C183.37 96.2046 186 91.1127 186 87.2363V62.8279C186 58.7873 182.83 54.3195 178.952 52.9069L162.126 46.7638C159.259 45.7454 154.673 45.7454 151.874 46.7638Z" stroke="#3453C0" stroke-width="9" stroke-linecap="round" stroke-linejoin="round"/>
<path d="M148.123 78.5591L152.96 83.8774L165.878 69.6733" stroke="#F5F5DC" stroke-width="9" stroke-linecap="round" stroke-linejoin="round"/>
<path d="M213.034 93V58.0909H236.557V64.1761H220.415V72.4943H235.347V78.5795H220.415V86.9148H236.625V93H213.034ZM249.754 93.4943C248.084 93.4943 246.595 93.2045 245.288 92.625C243.982 92.0341 242.947 91.1648 242.186 90.017C241.436 88.858 241.061 87.4148 241.061 85.6875C241.061 84.233 241.328 83.0114 241.862 82.0227C242.396 81.0341 243.124 80.2386 244.044 79.6364C244.964 79.0341 246.01 78.5795 247.18 78.2727C248.362 77.9659 249.601 77.75 250.896 77.625C252.419 77.4659 253.646 77.3182 254.578 77.1818C255.51 77.0341 256.186 76.8182 256.607 76.5341C257.027 76.25 257.237 75.8295 257.237 75.2727V75.1705C257.237 74.0909 256.896 73.2557 256.214 72.6648C255.544 72.0739 254.589 71.7784 253.351 71.7784C252.044 71.7784 251.004 72.0682 250.232 72.6477C249.459 73.2159 248.947 73.9318 248.697 74.7955L241.982 74.25C242.322 72.6591 242.993 71.2841 243.993 70.125C244.993 68.9545 246.283 68.0568 247.862 67.4318C249.453 66.7955 251.294 66.4773 253.385 66.4773C254.839 66.4773 256.232 66.6477 257.561 66.9886C258.902 67.3295 260.089 67.858 261.124 68.5739C262.169 69.2898 262.993 70.2102 263.595 71.3352C264.197 72.4489 264.499 73.7841 264.499 75.3409V93H257.612V89.3693H257.408C256.987 90.1875 256.425 90.9091 255.72 91.5341C255.016 92.1477 254.169 92.6307 253.18 92.983C252.192 93.3239 251.05 93.4943 249.754 93.4943ZM251.834 88.483C252.902 88.483 253.845 88.2727 254.663 87.8523C255.482 87.4205 256.124 86.8409 256.589 86.1136C257.055 85.3864 257.288 84.5625 257.288 83.642V80.8636C257.061 81.0114 256.749 81.1477 256.351 81.2727C255.964 81.3864 255.527 81.4943 255.038 81.5966C254.55 81.6875 254.061 81.7727 253.572 81.8523C253.084 81.9205 252.641 81.983 252.243 82.0398C251.391 82.1648 250.646 82.3636 250.01 82.6364C249.374 82.9091 248.879 83.2784 248.527 83.7443C248.175 84.1989 247.999 84.767 247.999 85.4489C247.999 86.4375 248.357 87.1932 249.072 87.7159C249.8 88.2273 250.72 88.483 251.834 88.483ZM291.916 74.2841L285.268 74.6932C285.155 74.125 284.911 73.6136 284.536 73.1591C284.161 72.6932 283.666 72.3239 283.053 72.0511C282.45 71.767 281.729 71.625 280.888 71.625C279.763 71.625 278.814 71.8636 278.041 72.3409C277.268 72.8068 276.882 73.4318 276.882 74.2159C276.882 74.8409 277.132 75.3693 277.632 75.8011C278.132 76.233 278.99 76.5795 280.206 76.8409L284.945 77.7955C287.49 78.3182 289.388 79.1591 290.638 80.3182C291.888 81.4773 292.513 83 292.513 84.8864C292.513 86.6023 292.007 88.108 290.996 89.4034C289.996 90.6989 288.621 91.7102 286.871 92.4375C285.132 93.1534 283.126 93.5114 280.854 93.5114C277.388 93.5114 274.626 92.7898 272.57 91.3466C270.524 89.892 269.325 87.9148 268.973 85.4148L276.115 85.0398C276.331 86.0966 276.854 86.9034 277.683 87.4602C278.513 88.0057 279.575 88.2784 280.871 88.2784C282.143 88.2784 283.166 88.0341 283.939 87.5455C284.723 87.0455 285.121 86.4034 285.132 85.6193C285.121 84.9602 284.842 84.4205 284.297 84C283.751 83.5682 282.911 83.2386 281.774 83.0114L277.24 82.108C274.683 81.5966 272.78 80.7102 271.53 79.4489C270.291 78.1875 269.672 76.5795 269.672 74.625C269.672 72.9432 270.126 71.4943 271.036 70.2784C271.956 69.0625 273.246 68.125 274.905 67.4659C276.575 66.8068 278.53 66.4773 280.768 66.4773C284.075 66.4773 286.678 67.1761 288.575 68.5739C290.484 69.9716 291.598 71.875 291.916 74.2841ZM301.568 102.818C300.648 102.818 299.784 102.744 298.977 102.597C298.182 102.46 297.523 102.284 297 102.068L298.636 96.6477C299.489 96.9091 300.256 97.0511 300.938 97.0739C301.631 97.0966 302.227 96.9375 302.727 96.5966C303.239 96.2557 303.653 95.6761 303.972 94.858L304.398 93.75L295.006 66.8182H302.642L308.062 86.0455H308.335L313.807 66.8182H321.494L311.318 95.8295C310.83 97.2386 310.165 98.4659 309.324 99.5114C308.494 100.568 307.443 101.381 306.17 101.949C304.898 102.528 303.364 102.818 301.568 102.818Z" fill="#F5F5DC"/>
<path d="M331.364 93H323.455L335.506 58.0909H345.017L357.051 93H349.142L340.398 66.0682H340.125L331.364 93ZM330.869 79.2784H349.551V85.0398H330.869V79.2784ZM371.727 93.5114C369.045 93.5114 366.739 92.9432 364.807 91.8068C362.886 90.6591 361.409 89.0682 360.375 87.0341C359.352 85 358.841 82.6591 358.841 80.0114C358.841 77.3295 359.358 74.9773 360.392 72.9545C361.438 70.9205 362.92 69.3352 364.841 68.1989C366.761 67.0511 369.045 66.4773 371.693 66.4773C373.977 66.4773 375.977 66.892 377.693 67.7216C379.409 68.5511 380.767 69.7159 381.767 71.2159C382.767 72.7159 383.318 74.4773 383.42 76.5H376.568C376.375 75.1932 375.864 74.142 375.034 73.3466C374.216 72.5398 373.142 72.1364 371.812 72.1364C370.688 72.1364 369.705 72.4432 368.864 73.0568C368.034 73.6591 367.386 74.5398 366.92 75.6989C366.455 76.858 366.222 78.2614 366.222 79.9091C366.222 81.5795 366.449 83 366.903 84.1705C367.369 85.3409 368.023 86.233 368.864 86.8466C369.705 87.4602 370.688 87.767 371.812 87.767C372.642 87.767 373.386 87.5966 374.045 87.2557C374.716 86.9148 375.267 86.4205 375.699 85.7727C376.142 85.1136 376.432 84.3239 376.568 83.4034H383.42C383.307 85.4034 382.761 87.1648 381.784 88.6875C380.818 90.1989 379.483 91.3807 377.778 92.233C376.074 93.0852 374.057 93.5114 371.727 93.5114ZM399.899 93.5114C397.217 93.5114 394.911 92.9432 392.979 91.8068C391.058 90.6591 389.581 89.0682 388.547 87.0341C387.524 85 387.013 82.6591 387.013 80.0114C387.013 77.3295 387.53 74.9773 388.564 72.9545C389.609 70.9205 391.092 69.3352 393.013 68.1989C394.933 67.0511 397.217 66.4773 399.865 66.4773C402.149 66.4773 404.149 66.892 405.865 67.7216C407.581 68.5511 408.939 69.7159 409.939 71.2159C410.939 72.7159 411.49 74.4773 411.592 76.5H404.74C404.547 75.1932 404.036 74.142 403.206 73.3466C402.388 72.5398 401.314 72.1364 399.984 72.1364C398.859 72.1364 397.876 72.4432 397.036 73.0568C396.206 73.6591 395.558 74.5398 395.092 75.6989C394.626 76.858 394.393 78.2614 394.393 79.9091C394.393 81.5795 394.621 83 395.075 84.1705C395.541 85.3409 396.195 86.233 397.036 86.8466C397.876 87.4602 398.859 87.767 399.984 87.767C400.814 87.767 401.558 87.5966 402.217 87.2557C402.888 86.9148 403.439 86.4205 403.871 85.7727C404.314 85.1136 404.604 84.3239 404.74 83.4034H411.592C411.479 85.4034 410.933 87.1648 409.956 88.6875C408.99 90.1989 407.655 91.3807 405.95 92.233C404.246 93.0852 402.229 93.5114 399.899 93.5114ZM428.173 93.5114C425.48 93.5114 423.162 92.9659 421.219 91.875C419.287 90.7727 417.798 89.2159 416.753 87.2045C415.707 85.1818 415.185 82.7898 415.185 80.0284C415.185 77.3352 415.707 74.9716 416.753 72.9375C417.798 70.9034 419.27 69.3182 421.168 68.1818C423.077 67.0455 425.315 66.4773 427.884 66.4773C429.611 66.4773 431.219 66.7557 432.707 67.3125C434.207 67.858 435.514 68.6818 436.628 69.7841C437.753 70.8864 438.628 72.2727 439.253 73.9432C439.878 75.6023 440.19 77.5455 440.19 79.7727V81.767H418.082V77.267H433.355C433.355 76.2216 433.128 75.2955 432.673 74.4886C432.219 73.6818 431.588 73.0511 430.781 72.5966C429.986 72.1307 429.06 71.8977 428.003 71.8977C426.901 71.8977 425.923 72.1534 425.071 72.6648C424.23 73.1648 423.571 73.8409 423.094 74.6932C422.616 75.5341 422.372 76.4716 422.361 77.5057V81.7841C422.361 83.0795 422.599 84.1989 423.077 85.142C423.565 86.0852 424.253 86.8125 425.139 87.3239C426.026 87.8352 427.077 88.0909 428.293 88.0909C429.099 88.0909 429.838 87.9773 430.509 87.75C431.179 87.5227 431.753 87.1818 432.23 86.7273C432.707 86.2727 433.071 85.7159 433.321 85.0568L440.037 85.5C439.696 87.1136 438.997 88.5227 437.94 89.7273C436.895 90.9205 435.543 91.8523 433.884 92.5227C432.236 93.1818 430.332 93.5114 428.173 93.5114ZM466.713 74.2841L460.065 74.6932C459.952 74.125 459.707 73.6136 459.332 73.1591C458.957 72.6932 458.463 72.3239 457.849 72.0511C457.247 71.767 456.526 71.625 455.685 71.625C454.56 71.625 453.611 71.8636 452.838 72.3409C452.065 72.8068 451.679 73.4318 451.679 74.2159C451.679 74.8409 451.929 75.3693 452.429 75.8011C452.929 76.233 453.787 76.5795 455.003 76.8409L459.741 77.7955C462.287 78.3182 464.185 79.1591 465.435 80.3182C466.685 81.4773 467.31 83 467.31 84.8864C467.31 86.6023 466.804 88.108 465.793 89.4034C464.793 90.6989 463.418 91.7102 461.668 92.4375C459.929 93.1534 457.923 93.5114 455.651 93.5114C452.185 93.5114 449.423 92.7898 447.366 91.3466C445.321 89.892 444.122 87.9148 443.77 85.4148L450.912 85.0398C451.128 86.0966 451.651 86.9034 452.48 87.4602C453.31 88.0057 454.372 88.2784 455.668 88.2784C456.94 88.2784 457.963 88.0341 458.736 87.5455C459.52 87.0455 459.918 86.4034 459.929 85.6193C459.918 84.9602 459.639 84.4205 459.094 84C458.548 83.5682 457.707 83.2386 456.571 83.0114L452.037 82.108C449.48 81.5966 447.577 80.7102 446.327 79.4489C445.088 78.1875 444.469 76.5795 444.469 74.625C444.469 72.9432 444.923 71.4943 445.832 70.2784C446.753 69.0625 448.043 68.125 449.702 67.4659C451.372 66.8068 453.327 66.4773 455.565 66.4773C458.872 66.4773 461.474 67.1761 463.372 68.5739C465.281 69.9716 466.395 71.875 466.713 74.2841ZM493.666 74.2841L487.018 74.6932C486.905 74.125 486.661 73.6136 486.286 73.1591C485.911 72.6932 485.416 72.3239 484.803 72.0511C484.2 71.767 483.479 71.625 482.638 71.625C481.513 71.625 480.564 71.8636 479.791 72.3409C479.018 72.8068 478.632 73.4318 478.632 74.2159C478.632 74.8409 478.882 75.3693 479.382 75.8011C479.882 76.233 480.74 76.5795 481.956 76.8409L486.695 77.7955C489.24 78.3182 491.138 79.1591 492.388 80.3182C493.638 81.4773 494.263 83 494.263 84.8864C494.263 86.6023 493.757 88.108 492.746 89.4034C491.746 90.6989 490.371 91.7102 488.621 92.4375C486.882 93.1534 484.876 93.5114 482.604 93.5114C479.138 93.5114 476.376 92.7898 474.32 91.3466C472.274 89.892 471.075 87.9148 470.723 85.4148L477.865 85.0398C478.081 86.0966 478.604 86.9034 479.433 87.4602C480.263 88.0057 481.325 88.2784 482.621 88.2784C483.893 88.2784 484.916 88.0341 485.689 87.5455C486.473 87.0455 486.871 86.4034 486.882 85.6193C486.871 84.9602 486.592 84.4205 486.047 84C485.501 83.5682 484.661 83.2386 483.524 83.0114L478.99 82.108C476.433 81.5966 474.53 80.7102 473.28 79.4489C472.041 78.1875 471.422 76.5795 471.422 74.625C471.422 72.9432 471.876 71.4943 472.786 70.2784C473.706 69.0625 474.996 68.125 476.655 67.4659C478.325 66.8068 480.28 66.4773 482.518 66.4773C485.825 66.4773 488.428 67.1761 490.325 68.5739C492.234 69.9716 493.348 71.875 493.666 74.2841Z" fill="#3453C0"/>
</svg>
