<svg viewBox="0 0 2964 1454" fill="none" xmlns="http://www.w3.org/2000/svg">
<rect width="2964" height="1454" fill="#0F0F0F"/>
<path d="M494.81 187.271L369.489 233.268C340.608 243.789 317 277.063 317 306.912V488.699C317 517.569 336.589 555.493 360.448 572.864L468.44 651.401C503.851 677.336 562.117 677.336 597.528 651.401L705.52 572.864C729.379 555.493 748.968 517.569 748.968 488.699V306.912C748.968 276.819 725.36 243.544 696.479 233.023L571.158 187.271C549.811 179.686 515.655 179.686 494.81 187.271Z" stroke="white" stroke-opacity="0.05" stroke-width="71" stroke-linecap="round" stroke-linejoin="round"/>
<path d="M466.867 424.076L502.891 463.685L599.102 357.896" stroke="#F5F5DC" stroke-opacity="0.05" stroke-width="71" stroke-linecap="round" stroke-linejoin="round"/>
<path d="M2129.12 144.516L1831.35 253.806C1762.73 278.803 1706.64 357.864 1706.64 428.786V860.714C1706.64 929.31 1753.18 1019.42 1809.87 1060.69L2066.46 1247.3C2150.6 1308.92 2289.04 1308.92 2373.18 1247.3L2629.77 1060.69C2686.46 1019.42 2733 929.31 2733 860.714V428.786C2733 357.282 2676.91 278.222 2608.28 253.224L2310.52 144.516C2259.8 126.495 2178.64 126.495 2129.12 144.516Z" stroke="white" stroke-opacity="0.05" stroke-width="162" stroke-linecap="round" stroke-linejoin="round"/>
<path d="M2062.72 707.166L2148.31 801.278L2376.92 549.924" stroke="#F5F5DC" stroke-opacity="0.05" stroke-width="162" stroke-linecap="round" stroke-linejoin="round"/>
<path d="M999.482 720.243L823.118 784.975C782.473 799.781 749.25 846.608 749.25 888.615V1144.44C749.25 1185.07 776.818 1238.44 810.394 1262.89L962.371 1373.41C1012.21 1409.91 1094.2 1409.91 1144.04 1373.41L1296.01 1262.89C1329.59 1238.44 1357.16 1185.07 1357.16 1144.44V888.615C1357.16 846.263 1323.94 799.436 1283.29 784.631L1106.93 720.243C1076.88 709.569 1028.82 709.569 999.482 720.243Z" stroke="white" stroke-opacity="0.05" stroke-width="71" stroke-linecap="round" stroke-linejoin="round"/>
<path d="M960.158 1053.5L1010.85 1109.24L1146.25 960.364" stroke="#F5F5DC" stroke-opacity="0.05" stroke-width="71" stroke-linecap="round" stroke-linejoin="round"/>
</svg>
