<svg viewBox="0 0 2964 1253" fill="none" xmlns="http://www.w3.org/2000/svg">
<rect width="2964" height="1253" fill="#151515"/>
<path d="M1439.81 88.6885L1314.49 134.686C1285.61 145.206 1262 178.481 1262 208.33V390.116C1262 418.987 1281.59 456.91 1305.45 474.281L1413.44 552.819C1448.85 578.754 1507.12 578.754 1542.53 552.819L1650.52 474.281C1674.38 456.91 1693.97 418.987 1693.97 390.116V208.33C1693.97 178.236 1670.36 144.962 1641.48 134.441L1516.16 88.6885C1494.81 81.1038 1460.66 81.1038 1439.81 88.6885Z" stroke="white" stroke-opacity="0.05" stroke-width="71" stroke-linecap="round" stroke-linejoin="round"/>
<path d="M1411.87 325.493L1447.89 365.102L1544.1 259.313" stroke="#F5F5DC" stroke-opacity="0.05" stroke-width="71" stroke-linecap="round" stroke-linejoin="round"/>
<path d="M2243.23 497.005L2066.87 561.737C2026.22 576.543 1993 623.37 1993 665.377V921.205C1993 961.834 2020.57 1015.2 2054.14 1039.65L2206.12 1150.18C2255.96 1186.67 2337.95 1186.67 2387.79 1150.18L2539.76 1039.65C2573.34 1015.2 2600.91 961.834 2600.91 921.205V665.377C2600.91 623.026 2567.69 576.198 2527.04 561.393L2350.68 497.005C2320.63 486.332 2272.57 486.332 2243.23 497.005Z" stroke="white" stroke-opacity="0.05" stroke-width="85" stroke-linecap="round" stroke-linejoin="round"/>
<path d="M2203.91 830.26L2254.6 886.002L2390 737.126" stroke="#F5F5DC" stroke-opacity="0.05" stroke-width="85" stroke-linecap="round" stroke-linejoin="round"/>
<path d="M530.902 161.906L290.634 250.093C235.261 270.263 190 334.058 190 391.286V739.811C190 795.163 227.557 867.87 273.3 901.175L480.345 1051.75C548.236 1101.47 659.944 1101.47 727.836 1051.75L934.881 901.175C980.623 867.87 1018.18 795.163 1018.18 739.811V391.286C1018.18 333.589 972.919 269.794 917.547 249.624L677.278 161.906C636.351 147.365 570.867 147.365 530.902 161.906Z" stroke="white" stroke-opacity="0.05" stroke-width="80" stroke-linecap="round" stroke-linejoin="round"/>
<path d="M477.328 615.913L546.393 691.852L730.853 489.033" stroke="#F5F5DC" stroke-opacity="0.05" stroke-width="80" stroke-linecap="round" stroke-linejoin="round"/>
</svg>
